<svg width="1440" height="1091" viewBox="0 0 1440 1091" fill="none" xmlns="http://www.w3.org/2000/svg">
<g clip-path="url(#clip0_2795_551)">
<rect width="1440" height="1091" fill="#0F1012"/>
<path d="M714.697 299L516.601 472.056L511 478.022L721.014 659L926 485.944L714.697 299Z" fill="black" fill-opacity="0.2"/>
<g filter="url(#filter0_b_2795_551)">
<path d="M707.743 960H473C463.611 960 456 952.389 456 943V41C456 31.6112 463.611 24 473 24H967C976.389 24 984 31.6111 984 41V943C984 952.389 976.389 960 967 960H707.743Z" fill="url(#paint0_linear_2795_551)" fill-opacity="0.25"/>
</g>
<g opacity="0.4">
<path d="M1339.97 384L1339.4 384.483L1339.62 384.75H1339.97V384ZM1318.89 359L1319.47 358.517L1319.24 358.25H1318.89V359ZM1215 359C1215 361.209 1216.79 363 1219 363C1221.21 363 1223 361.209 1223 359C1223 356.791 1221.21 355 1219 355C1216.79 355 1215 356.791 1215 359ZM1543 383.25H1339.97V384.75H1543V383.25ZM1340.55 383.517L1319.47 358.517L1318.32 359.483L1339.4 384.483L1340.55 383.517ZM1318.89 358.25H1219V359.75H1318.89V358.25Z" fill="#37578E"/>
<path d="M1402.1 483L1401.44 482.636L1401.66 482.25H1402.1V483ZM1384.35 515L1385.01 515.364L1384.8 515.75H1384.35V515ZM1296.27 515C1296.27 512.791 1298.06 511 1300.27 511C1302.48 511 1304.27 512.791 1304.27 515C1304.27 517.209 1302.48 519 1300.27 519C1298.06 519 1296.27 517.209 1296.27 515ZM1573 483.75H1402.1V482.25H1573V483.75ZM1402.76 483.364L1385.01 515.364L1383.7 514.636L1401.44 482.636L1402.76 483.364ZM1384.35 515.75H1300.27V514.25H1384.35V515.75Z" fill="#37578E"/>
<path d="M1331.85 404L1331.28 404.489L1331.51 404.75H1331.85V404ZM1311.21 380L1311.78 379.511L1311.56 379.25H1311.21V380ZM1114 380C1114 382.209 1115.79 384 1118 384C1120.21 384 1122 382.209 1122 380C1122 377.791 1120.21 376 1118 376C1115.79 376 1114 377.791 1114 380ZM1543 403.25H1331.85V404.75H1543V403.25ZM1332.42 403.511L1311.78 379.511L1310.64 380.489L1331.28 404.489L1332.42 403.511ZM1311.21 379.25H1118V380.75H1311.21V379.25Z" fill="#37578E"/>
<path d="M1396.2 457L1395.55 456.626L1395.77 456.25H1396.2V457ZM1378.92 487L1379.57 487.374L1379.35 487.75H1378.92V487ZM1213.14 487C1213.14 484.791 1214.93 483 1217.14 483C1219.35 483 1221.14 484.791 1221.14 487C1221.14 489.209 1219.35 491 1217.14 491C1214.93 491 1213.14 489.209 1213.14 487ZM1573 457.75H1396.2V456.25H1573V457.75ZM1396.85 457.374L1379.57 487.374L1378.27 486.626L1395.55 456.626L1396.85 457.374ZM1378.92 487.75H1217.14V486.25H1378.92V487.75Z" fill="#37578E"/>
<path d="M1317.21 420L1316.66 420.509L1316.88 420.75H1317.21V420ZM1293.2 394L1293.75 393.491L1293.53 393.25H1293.2V394ZM1219 394C1219 396.209 1220.79 398 1223 398C1225.21 398 1227 396.209 1227 394C1227 391.791 1225.21 390 1223 390C1220.79 390 1219 391.791 1219 394ZM1542 419.25H1317.21V420.75H1542V419.25ZM1317.76 419.491L1293.75 393.491L1292.65 394.509L1316.66 420.509L1317.76 419.491ZM1293.2 393.25H1223V394.75H1293.2V393.25Z" fill="#37578E"/>
<path d="M1391.23 436.085L1390.58 435.712L1390.79 435.335H1391.23V436.085ZM1371.9 469.797L1372.55 470.17L1372.34 470.547H1371.9V469.797ZM1311.4 469.797C1311.4 467.588 1313.19 465.797 1315.4 465.797C1317.61 465.797 1319.4 467.588 1319.4 469.797C1319.4 472.006 1317.61 473.797 1315.4 473.797C1313.19 473.797 1311.4 472.006 1311.4 469.797ZM1572.16 436.835H1391.23V435.335H1572.16V436.835ZM1391.88 436.458L1372.55 470.17L1371.25 469.424L1390.58 435.712L1391.88 436.458ZM1371.9 470.547H1315.4V469.047H1371.9V470.547Z" fill="#37578E"/>
</g>
<g style="mix-blend-mode:plus-lighter">
<rect x="-249" y="507" width="962" height="640" fill="black" fill-opacity="0.2"/>
</g>
<g style="mix-blend-mode:plus-lighter">
<rect x="718" y="507" width="962" height="640" fill="black" fill-opacity="0.2"/>
</g>
<g filter="url(#filter1_f_2795_551)">
<ellipse cx="760" cy="948.5" rx="798" ry="251.5" fill="#37578E" fill-opacity="0.7"/>
</g>
<path d="M590.635 276.102V259.149L633.143 192.182H647.759V215.648H639.108L612.312 258.055V258.851H672.716V276.102H590.635ZM639.506 294V270.932L639.904 263.425V192.182H660.089V294H639.506ZM719.981 296.237C711.43 296.204 704.072 294.099 697.907 289.923C691.776 285.747 687.053 279.698 683.738 271.777C680.457 263.856 678.833 254.327 678.866 243.19C678.866 232.087 680.507 222.625 683.788 214.803C687.103 206.981 691.826 201.031 697.957 196.955C704.122 192.845 711.463 190.79 719.981 190.79C728.499 190.79 735.824 192.845 741.956 196.955C748.121 201.064 752.86 207.03 756.175 214.852C759.489 222.641 761.13 232.087 761.096 243.19C761.096 254.36 759.439 263.905 756.125 271.827C752.844 279.748 748.137 285.797 742.006 289.973C735.874 294.149 728.532 296.237 719.981 296.237ZM719.981 278.389C725.815 278.389 730.471 275.456 733.952 269.589C737.432 263.723 739.155 254.923 739.122 243.19C739.122 235.468 738.327 229.038 736.736 223.901C735.178 218.763 732.957 214.902 730.074 212.317C727.223 209.732 723.859 208.439 719.981 208.439C714.181 208.439 709.541 211.339 706.061 217.139C702.581 222.939 700.824 231.623 700.791 243.19C700.791 251.012 701.57 257.542 703.128 262.778C704.719 267.982 706.956 271.893 709.839 274.511C712.723 277.097 716.104 278.389 719.981 278.389ZM767.905 276.102V259.149L810.412 192.182H825.029V215.648H816.378L789.581 258.055V258.851H849.986V276.102H767.905ZM816.776 294V270.932L817.173 263.425V192.182H837.358V294H816.776Z" fill="url(#paint1_radial_2795_551)"/>
<line x1="80" y1="89.5" x2="1357" y2="89.5001" stroke="white" stroke-opacity="0.1"/>
<g opacity="0.4">
<path d="M86.5556 267.137L87.1615 267.579L86.9368 267.887H86.5556V267.137ZM102.707 245L102.102 244.558L102.326 244.25H102.707V245ZM183.242 245C183.242 247.209 181.451 249 179.242 249C177.033 249 175.242 247.209 175.242 245C175.242 242.791 177.033 241 179.242 241C181.451 241 183.242 242.791 183.242 245ZM-68.9988 266.387H86.5556V267.887H-68.9988V266.387ZM85.9498 266.695L102.102 244.558L103.313 245.442L87.1615 267.579L85.9498 266.695ZM102.707 244.25H179.242V245.75H102.707V244.25Z" fill="#37578E"/>
<path d="M123.573 351.817L124.183 351.381L123.959 351.067H123.573V351.817ZM143.568 379.834L142.958 380.27L143.182 380.584H143.568V379.834ZM242.316 379.834C242.316 377.625 240.526 375.834 238.316 375.834C236.107 375.834 234.316 377.625 234.316 379.834C234.316 382.043 236.107 383.834 238.316 383.834C240.526 383.834 242.316 382.043 242.316 379.834ZM-69 352.567H123.573V351.067H-69V352.567ZM122.962 352.252L142.958 380.27L144.179 379.398L124.183 351.381L122.962 352.252ZM143.568 380.584H238.316V379.084H143.568V380.584Z" fill="#37578E"/>
<path d="M91.0767 284.578L91.6759 285.029L91.4509 285.328H91.0767V284.578ZM106.725 263.783L106.126 263.332L106.351 263.033H106.725V263.783ZM257.203 263.783C257.203 265.992 255.412 267.783 253.203 267.783C250.994 267.783 249.203 265.992 249.203 263.783C249.203 261.574 250.994 259.783 253.203 259.783C255.412 259.783 257.203 261.574 257.203 263.783ZM-68.9976 283.828H91.0767V285.328H-68.9976V283.828ZM90.4774 284.128L106.126 263.332L107.324 264.234L91.6759 285.029L90.4774 284.128ZM106.725 263.033H253.203V264.533H106.725V263.033Z" fill="#37578E"/>
<path d="M130.223 329.052L130.826 328.605L130.601 328.302H130.223V329.052ZM149.698 355.318L149.096 355.765L149.321 356.068H149.698V355.318ZM336 355.318C336 353.109 334.209 351.318 332 351.318C329.791 351.318 328 353.109 328 355.318C328 357.527 329.791 359.318 332 359.318C334.209 359.318 336 357.527 336 355.318ZM-68.9998 329.802H130.223V328.302H-68.9998V329.802ZM129.621 329.499L149.096 355.765L150.301 354.872L130.826 328.605L129.621 329.499ZM149.698 356.068H332V354.568H149.698V356.068Z" fill="#37578E"/>
<path d="M99.4346 297.994L100.018 298.466L99.7925 298.744H99.4346V297.994ZM117.345 275.857L116.762 275.386L116.987 275.107H117.345V275.857ZM173.719 275.857C173.719 278.067 171.928 279.857 169.719 279.857C167.51 279.857 165.719 278.067 165.719 275.857C165.719 273.648 167.51 271.857 169.719 271.857C171.928 271.857 173.719 273.648 173.719 275.857ZM-68.2704 297.244H99.4346V298.744H-68.2704V297.244ZM98.8515 297.523L116.762 275.386L117.928 276.329L100.018 298.466L98.8515 297.523ZM117.345 275.107H169.719V276.607H117.345V275.107Z" fill="#37578E"/>
<path d="M136.093 310.665L136.698 310.222L136.473 309.915H136.093V310.665ZM157.903 340.434L157.298 340.877L157.522 341.184H157.903V340.434ZM225.68 340.434C225.68 338.224 223.889 336.434 221.68 336.434C219.471 336.434 217.68 338.224 217.68 340.434C217.68 342.643 219.471 344.434 221.68 344.434C223.889 344.434 225.68 342.643 225.68 340.434ZM-68.1258 311.415H136.093V309.915H-68.1258V311.415ZM135.488 311.108L157.298 340.877L158.508 339.99L136.698 310.222L135.488 311.108ZM157.903 341.184H221.68V339.684H157.903V341.184Z" fill="#37578E"/>
</g>
<path d="M687.643 481.909V495H686.109L678.975 484.722H678.847V495H677.262V481.909H678.796L685.955 492.213H686.083V481.909H687.643ZM694.599 495.205C693.712 495.205 692.935 494.994 692.266 494.572C691.601 494.15 691.081 493.56 690.706 492.801C690.335 492.043 690.15 491.156 690.15 490.142C690.15 489.119 690.335 488.227 690.706 487.464C691.081 486.701 691.601 486.109 692.266 485.687C692.935 485.265 693.712 485.054 694.599 485.054C695.485 485.054 696.261 485.265 696.926 485.687C697.595 486.109 698.114 486.701 698.485 487.464C698.86 488.227 699.048 489.119 699.048 490.142C699.048 491.156 698.86 492.043 698.485 492.801C698.114 493.56 697.595 494.15 696.926 494.572C696.261 494.994 695.485 495.205 694.599 495.205ZM694.599 493.849C695.272 493.849 695.826 493.677 696.261 493.332C696.695 492.987 697.017 492.533 697.226 491.97C697.435 491.408 697.539 490.798 697.539 490.142C697.539 489.486 697.435 488.874 697.226 488.308C697.017 487.741 696.695 487.283 696.261 486.933C695.826 486.584 695.272 486.409 694.599 486.409C693.926 486.409 693.372 486.584 692.937 486.933C692.502 487.283 692.18 487.741 691.972 488.308C691.763 488.874 691.658 489.486 691.658 490.142C691.658 490.798 691.763 491.408 691.972 491.97C692.18 492.533 692.502 492.987 692.937 493.332C693.372 493.677 693.926 493.849 694.599 493.849ZM705.62 485.182V486.46H700.532V485.182H705.62ZM702.015 482.83H703.524V492.188C703.524 492.614 703.585 492.933 703.709 493.146C703.837 493.355 703.999 493.496 704.195 493.568C704.395 493.636 704.606 493.67 704.828 493.67C704.994 493.67 705.13 493.662 705.237 493.645C705.343 493.624 705.429 493.607 705.492 493.594L705.799 494.949C705.697 494.987 705.554 495.026 705.371 495.064C705.188 495.107 704.956 495.128 704.674 495.128C704.248 495.128 703.831 495.036 703.421 494.853C703.017 494.67 702.68 494.391 702.411 494.016C702.147 493.641 702.015 493.168 702.015 492.597V482.83ZM713.157 495V481.909H721.006V483.315H714.742V487.739H720.418V489.145H714.742V495H713.157ZM726.784 495.205C725.898 495.205 725.12 494.994 724.451 494.572C723.786 494.15 723.267 493.56 722.892 492.801C722.521 492.043 722.335 491.156 722.335 490.142C722.335 489.119 722.521 488.227 722.892 487.464C723.267 486.701 723.786 486.109 724.451 485.687C725.12 485.265 725.898 485.054 726.784 485.054C727.671 485.054 728.446 485.265 729.111 485.687C729.78 486.109 730.3 486.701 730.671 487.464C731.046 488.227 731.233 489.119 731.233 490.142C731.233 491.156 731.046 492.043 730.671 492.801C730.3 493.56 729.78 494.15 729.111 494.572C728.446 494.994 727.671 495.205 726.784 495.205ZM726.784 493.849C727.458 493.849 728.012 493.677 728.446 493.332C728.881 492.987 729.203 492.533 729.411 491.97C729.62 491.408 729.725 490.798 729.725 490.142C729.725 489.486 729.62 488.874 729.411 488.308C729.203 487.741 728.881 487.283 728.446 486.933C728.012 486.584 727.458 486.409 726.784 486.409C726.111 486.409 725.557 486.584 725.122 486.933C724.688 487.283 724.366 487.741 724.157 488.308C723.948 488.874 723.844 489.486 723.844 490.142C723.844 490.798 723.948 491.408 724.157 491.97C724.366 492.533 724.688 492.987 725.122 493.332C725.557 493.677 726.111 493.849 726.784 493.849ZM739.723 490.986V485.182H741.232V495H739.723V493.338H739.621C739.391 493.837 739.033 494.261 738.547 494.61C738.062 494.955 737.448 495.128 736.706 495.128C736.093 495.128 735.547 494.994 735.07 494.725C734.593 494.452 734.218 494.043 733.945 493.498C733.672 492.948 733.536 492.256 733.536 491.42V485.182H735.044V491.318C735.044 492.034 735.245 492.605 735.645 493.031C736.05 493.457 736.566 493.67 737.192 493.67C737.567 493.67 737.949 493.575 738.336 493.383C738.728 493.191 739.057 492.897 739.321 492.501C739.589 492.104 739.723 491.599 739.723 490.986ZM745.503 489.094V495H743.995V485.182H745.452V486.716H745.58C745.81 486.217 746.16 485.817 746.628 485.514C747.097 485.207 747.702 485.054 748.444 485.054C749.109 485.054 749.69 485.19 750.189 485.463C750.687 485.732 751.075 486.141 751.352 486.69C751.629 487.236 751.768 487.926 751.768 488.761V495H750.259V488.864C750.259 488.092 750.059 487.491 749.658 487.061C749.258 486.626 748.708 486.409 748.009 486.409C747.528 486.409 747.097 486.513 746.718 486.722C746.343 486.931 746.047 487.236 745.829 487.636C745.612 488.037 745.503 488.523 745.503 489.094ZM758.232 495.205C757.413 495.205 756.691 494.998 756.065 494.585C755.438 494.167 754.948 493.579 754.595 492.82C754.241 492.058 754.064 491.156 754.064 490.116C754.064 489.085 754.241 488.19 754.595 487.432C754.948 486.673 755.44 486.087 756.071 485.674C756.702 485.261 757.43 485.054 758.257 485.054C758.896 485.054 759.401 485.161 759.772 485.374C760.147 485.582 760.433 485.821 760.629 486.089C760.829 486.354 760.984 486.571 761.095 486.741H761.223V481.909H762.732V495H761.274V493.491H761.095C760.984 493.67 760.827 493.896 760.622 494.169C760.418 494.437 760.126 494.678 759.747 494.891C759.367 495.1 758.862 495.205 758.232 495.205ZM758.436 493.849C759.041 493.849 759.553 493.692 759.97 493.376C760.388 493.057 760.705 492.616 760.923 492.053C761.14 491.487 761.249 490.832 761.249 490.091C761.249 489.358 761.142 488.717 760.929 488.167C760.716 487.613 760.401 487.183 759.983 486.876C759.565 486.565 759.05 486.409 758.436 486.409C757.797 486.409 757.264 486.573 756.838 486.901C756.416 487.225 756.099 487.666 755.886 488.224C755.677 488.778 755.573 489.401 755.573 490.091C755.573 490.79 755.679 491.425 755.892 491.996C756.109 492.562 756.429 493.014 756.851 493.351C757.277 493.683 757.805 493.849 758.436 493.849Z" fill="white" fill-opacity="0.8"/>
<rect x="622" y="540" width="194" height="54" rx="27" fill="#FF6B6B"/>
<path d="M675.925 573V561.364H680.585C681.441 561.364 682.155 561.491 682.727 561.744C683.299 561.998 683.728 562.35 684.016 562.801C684.304 563.248 684.448 563.763 684.448 564.347C684.448 564.801 684.357 565.201 684.175 565.545C683.994 565.886 683.744 566.167 683.425 566.386C683.111 566.602 682.751 566.756 682.346 566.847V566.96C682.789 566.979 683.204 567.104 683.59 567.335C683.98 567.566 684.297 567.89 684.539 568.307C684.781 568.72 684.903 569.212 684.903 569.784C684.903 570.402 684.749 570.953 684.442 571.438C684.139 571.919 683.691 572.299 683.096 572.58C682.501 572.86 681.768 573 680.897 573H675.925ZM678.386 570.989H680.391C681.077 570.989 681.577 570.858 681.891 570.597C682.206 570.331 682.363 569.979 682.363 569.54C682.363 569.218 682.285 568.934 682.13 568.688C681.975 568.441 681.753 568.248 681.465 568.108C681.181 567.968 680.842 567.898 680.448 567.898H678.386V570.989ZM678.386 566.233H680.21C680.547 566.233 680.846 566.174 681.107 566.057C681.372 565.936 681.581 565.765 681.732 565.545C681.888 565.326 681.965 565.062 681.965 564.756C681.965 564.335 681.816 563.996 681.516 563.739C681.221 563.481 680.8 563.352 680.255 563.352H678.386V566.233ZM688.947 573.165C688.39 573.165 687.894 573.068 687.458 572.875C687.022 572.678 686.678 572.388 686.424 572.006C686.174 571.619 686.049 571.138 686.049 570.562C686.049 570.078 686.138 569.67 686.316 569.341C686.494 569.011 686.737 568.746 687.043 568.545C687.35 568.345 687.699 568.193 688.089 568.091C688.483 567.989 688.896 567.917 689.327 567.875C689.835 567.822 690.244 567.773 690.555 567.727C690.865 567.678 691.091 567.606 691.231 567.511C691.371 567.417 691.441 567.277 691.441 567.091V567.057C691.441 566.697 691.327 566.419 691.1 566.222C690.877 566.025 690.558 565.926 690.146 565.926C689.71 565.926 689.363 566.023 689.106 566.216C688.848 566.405 688.678 566.644 688.594 566.932L686.356 566.75C686.469 566.22 686.693 565.761 687.026 565.375C687.36 564.985 687.79 564.686 688.316 564.477C688.846 564.265 689.46 564.159 690.157 564.159C690.642 564.159 691.106 564.216 691.549 564.33C691.996 564.443 692.392 564.619 692.737 564.858C693.085 565.097 693.36 565.403 693.56 565.778C693.761 566.15 693.862 566.595 693.862 567.114V573H691.566V571.79H691.498C691.358 572.062 691.17 572.303 690.935 572.511C690.701 572.716 690.418 572.877 690.089 572.994C689.759 573.108 689.379 573.165 688.947 573.165ZM689.64 571.494C689.996 571.494 690.31 571.424 690.583 571.284C690.856 571.14 691.07 570.947 691.225 570.705C691.38 570.462 691.458 570.187 691.458 569.881V568.955C691.382 569.004 691.278 569.049 691.146 569.091C691.017 569.129 690.871 569.165 690.708 569.199C690.545 569.229 690.382 569.258 690.219 569.284C690.057 569.307 689.909 569.328 689.776 569.347C689.492 569.388 689.244 569.455 689.032 569.545C688.82 569.636 688.655 569.759 688.538 569.915C688.42 570.066 688.362 570.256 688.362 570.483C688.362 570.812 688.481 571.064 688.719 571.239C688.962 571.409 689.269 571.494 689.64 571.494ZM699.683 573.17C698.789 573.17 698.02 572.981 697.376 572.602C696.736 572.22 696.243 571.689 695.898 571.011C695.558 570.333 695.387 569.553 695.387 568.67C695.387 567.777 695.559 566.992 695.904 566.318C696.253 565.64 696.747 565.112 697.387 564.733C698.027 564.35 698.789 564.159 699.671 564.159C700.433 564.159 701.099 564.297 701.671 564.574C702.243 564.85 702.696 565.239 703.029 565.739C703.362 566.239 703.546 566.826 703.58 567.5H701.296C701.232 567.064 701.061 566.714 700.785 566.449C700.512 566.18 700.154 566.045 699.711 566.045C699.336 566.045 699.008 566.148 698.728 566.352C698.451 566.553 698.236 566.847 698.08 567.233C697.925 567.619 697.847 568.087 697.847 568.636C697.847 569.193 697.923 569.667 698.075 570.057C698.23 570.447 698.448 570.744 698.728 570.949C699.008 571.153 699.336 571.256 699.711 571.256C699.987 571.256 700.236 571.199 700.455 571.085C700.679 570.972 700.862 570.807 701.006 570.591C701.154 570.371 701.251 570.108 701.296 569.801H703.58C703.542 570.468 703.361 571.055 703.035 571.562C702.713 572.066 702.268 572.46 701.7 572.744C701.131 573.028 700.459 573.17 699.683 573.17ZM707.323 570.489L707.329 567.585H707.681L710.477 564.273H713.255L709.499 568.659H708.925L707.323 570.489ZM705.13 573V561.364H707.55V573H705.13ZM710.585 573L708.016 569.199L709.63 567.489L713.42 573H710.585ZM718.191 573V561.364H720.651V566.165H725.646V561.364H728.1V573H725.646V568.193H720.651V573H718.191ZM734.026 573.17C733.144 573.17 732.38 572.983 731.737 572.608C731.096 572.229 730.602 571.703 730.254 571.028C729.905 570.35 729.731 569.564 729.731 568.67C729.731 567.769 729.905 566.981 730.254 566.307C730.602 565.629 731.096 565.102 731.737 564.727C732.38 564.348 733.144 564.159 734.026 564.159C734.909 564.159 735.67 564.348 736.31 564.727C736.954 565.102 737.451 565.629 737.799 566.307C738.147 566.981 738.322 567.769 738.322 568.67C738.322 569.564 738.147 570.35 737.799 571.028C737.451 571.703 736.954 572.229 736.31 572.608C735.67 572.983 734.909 573.17 734.026 573.17ZM734.038 571.295C734.439 571.295 734.774 571.182 735.043 570.955C735.312 570.723 735.515 570.409 735.651 570.011C735.791 569.614 735.862 569.161 735.862 568.653C735.862 568.146 735.791 567.693 735.651 567.295C735.515 566.898 735.312 566.583 735.043 566.352C734.774 566.121 734.439 566.006 734.038 566.006C733.632 566.006 733.291 566.121 733.015 566.352C732.742 566.583 732.536 566.898 732.396 567.295C732.259 567.693 732.191 568.146 732.191 568.653C732.191 569.161 732.259 569.614 732.396 570.011C732.536 570.409 732.742 570.723 733.015 570.955C733.291 571.182 733.632 571.295 734.038 571.295ZM739.896 573V564.273H742.202V565.812H742.305C742.487 565.301 742.79 564.898 743.214 564.602C743.638 564.307 744.146 564.159 744.737 564.159C745.335 564.159 745.844 564.309 746.265 564.608C746.685 564.903 746.966 565.305 747.106 565.812H747.197C747.375 565.312 747.697 564.913 748.163 564.614C748.632 564.311 749.187 564.159 749.827 564.159C750.642 564.159 751.303 564.419 751.81 564.938C752.322 565.453 752.577 566.184 752.577 567.131V573H750.163V567.608C750.163 567.123 750.034 566.759 749.776 566.517C749.519 566.275 749.197 566.153 748.81 566.153C748.371 566.153 748.028 566.294 747.782 566.574C747.536 566.85 747.413 567.216 747.413 567.67V573H745.066V567.557C745.066 567.129 744.943 566.788 744.697 566.534C744.454 566.28 744.134 566.153 743.737 566.153C743.468 566.153 743.225 566.222 743.009 566.358C742.797 566.491 742.629 566.678 742.504 566.92C742.379 567.159 742.316 567.439 742.316 567.761V573H739.896ZM758.467 573.17C757.569 573.17 756.796 572.989 756.148 572.625C755.504 572.258 755.008 571.739 754.66 571.068C754.311 570.394 754.137 569.597 754.137 568.676C754.137 567.778 754.311 566.991 754.66 566.312C755.008 565.634 755.499 565.106 756.131 564.727C756.768 564.348 757.514 564.159 758.37 564.159C758.946 564.159 759.482 564.252 759.978 564.438C760.478 564.619 760.914 564.894 761.285 565.261C761.66 565.629 761.951 566.091 762.16 566.648C762.368 567.201 762.472 567.848 762.472 568.591V569.256H755.103V567.756H760.194C760.194 567.407 760.118 567.098 759.967 566.83C759.815 566.561 759.605 566.35 759.336 566.199C759.071 566.044 758.762 565.966 758.41 565.966C758.042 565.966 757.717 566.051 757.433 566.222C757.152 566.388 756.933 566.614 756.773 566.898C756.614 567.178 756.533 567.491 756.529 567.835V569.261C756.529 569.693 756.609 570.066 756.768 570.381C756.931 570.695 757.16 570.938 757.455 571.108C757.751 571.278 758.101 571.364 758.506 571.364C758.775 571.364 759.022 571.326 759.245 571.25C759.469 571.174 759.66 571.061 759.819 570.909C759.978 570.758 760.099 570.572 760.183 570.352L762.421 570.5C762.308 571.038 762.075 571.508 761.722 571.909C761.374 572.307 760.923 572.617 760.37 572.841C759.821 573.061 759.186 573.17 758.467 573.17Z" fill="white"/>
<g clip-path="url(#clip1_2795_551)">
<path d="M129.999 46.0001C129.999 41.0936 128.223 36.388 125.06 32.9185C121.898 29.4491 117.609 27.5 113.136 27.5C108.664 27.5 104.375 29.4491 101.213 32.9185C98.0501 36.388 96.2734 41.0936 96.2734 46.0001H101.543C103.289 46.0001 104.651 44.3946 105.291 42.612C105.711 41.4416 106.348 40.366 107.174 39.4593C108.756 37.7246 110.9 36.75 113.136 36.75C115.373 36.75 117.517 37.7246 119.098 39.4593C120.68 41.194 121.568 43.5468 121.568 46.0001H129.999Z" fill="url(#paint2_linear_2795_551)"/>
<path d="M120.286 53.0796C121.134 50.8351 121.57 48.4294 121.57 46H130.001C130.001 56.2173 122.451 64.4999 113.138 64.4999C111.679 64.4999 110.264 64.2968 108.914 63.915C109.678 63.6991 110.428 63.4242 111.16 63.0917C113.206 62.162 115.065 60.7994 116.631 59.0815C118.197 57.3636 119.439 55.3241 120.286 53.0796Z" fill="url(#paint3_linear_2795_551)"/>
<path d="M87.8438 46C87.8437 48.4295 88.2799 50.8352 89.1274 53.0797C89.9748 55.3243 91.2169 57.3637 92.7828 59.0816C94.3487 60.7994 96.2076 62.1621 98.2535 63.0919C100.299 64.0216 102.492 64.5001 104.707 64.5001C106.921 64.5001 109.114 64.0216 111.16 63.0919C113.206 62.1621 115.065 60.7994 116.631 59.0816C118.196 57.3637 119.439 55.3243 120.286 53.0797C121.133 50.8352 121.57 48.4295 121.57 46H116.3C114.554 46 113.192 47.6054 112.552 49.388C112.534 49.4388 112.515 49.4894 112.496 49.5399C112.073 50.6621 111.452 51.6819 110.669 52.5408C109.886 53.3997 108.956 54.0811 107.933 54.546C106.91 55.0109 105.814 55.2501 104.707 55.2501C103.599 55.2501 102.503 55.0109 101.48 54.546C100.457 54.0811 99.5277 53.3997 98.7447 52.5408C97.9618 51.6819 97.3408 50.6621 96.917 49.5399C96.4933 48.4176 96.2752 47.2148 96.2752 46H87.8438Z" fill="url(#paint4_linear_2795_551)"/>
<path d="M87.8477 46.0001C87.8477 35.7827 95.3974 27.5 104.711 27.5C106.169 27.5 107.584 27.703 108.933 28.0847C106.037 28.9031 103.366 30.5594 101.216 32.9185C98.0532 36.3879 96.2766 41.0936 96.2766 46.0001H87.8477Z" fill="url(#paint5_linear_2795_551)"/>
<path d="M159.832 42.0613C159.73 41.156 159.31 40.4548 158.57 39.9576C157.831 39.454 156.9 39.2022 155.778 39.2022C154.975 39.2022 154.28 39.3297 153.693 39.5847C153.107 39.8333 152.651 40.1775 152.326 40.6174C152.007 41.0509 151.848 41.5449 151.848 42.0995C151.848 42.5649 151.956 42.9665 152.173 43.3043C152.396 43.6422 152.686 43.9259 153.043 44.1553C153.407 44.3785 153.795 44.5665 154.21 44.7195C154.624 44.8661 155.023 44.9872 155.405 45.0829L157.317 45.5801C157.942 45.7331 158.583 45.9403 159.239 46.2016C159.896 46.463 160.505 46.8072 161.066 47.2343C161.627 47.6614 162.079 48.1905 162.424 48.8216C162.774 49.4527 162.95 50.2081 162.95 51.0879C162.95 52.1971 162.663 53.182 162.089 54.0425C161.522 54.9031 160.696 55.582 159.612 56.0793C158.535 56.5765 157.231 56.8251 155.701 56.8251C154.235 56.8251 152.967 56.5924 151.896 56.1271C150.825 55.6617 149.987 55.0019 149.381 54.1477C148.775 53.2871 148.441 52.2672 148.377 51.0879H151.341C151.399 51.7955 151.628 52.3851 152.03 52.8568C152.438 53.3222 152.957 53.6696 153.588 53.8991C154.226 54.1222 154.924 54.2338 155.682 54.2338C156.517 54.2338 157.26 54.1031 157.91 53.8417C158.567 53.574 159.083 53.2043 159.459 52.7325C159.836 52.2544 160.024 51.6966 160.024 51.0592C160.024 50.4791 159.858 50.0042 159.526 49.6344C159.201 49.2647 158.758 48.9587 158.197 48.7165C157.643 48.4742 157.015 48.2607 156.313 48.0758L153.999 47.4447C152.431 47.0176 151.188 46.3897 150.27 45.561C149.359 44.7323 148.903 43.6358 148.903 42.2716C148.903 41.1433 149.209 40.1584 149.821 39.3169C150.433 38.4755 151.262 37.8221 152.307 37.3567C153.352 36.885 154.532 36.6491 155.845 36.6491C157.171 36.6491 158.341 36.8818 159.354 37.3471C160.374 37.8125 161.177 38.4532 161.764 39.2691C162.35 40.0787 162.656 41.0094 162.682 42.0613H159.832ZM168.897 56.5L164.574 41.8126H167.529L170.407 52.5987H170.551L173.438 41.8126H176.393L179.262 52.5509H179.405L182.264 41.8126H185.219L180.906 56.5H177.99L175.007 45.8956H174.787L171.803 56.5H168.897ZM187.394 56.5V41.8126H190.253V56.5H187.394ZM188.838 39.5464C188.34 39.5464 187.913 39.3807 187.556 39.0492C187.206 38.7113 187.03 38.3097 187.03 37.8444C187.03 37.3726 187.206 36.971 187.556 36.6395C187.913 36.3017 188.34 36.1328 188.838 36.1328C189.335 36.1328 189.759 36.3017 190.109 36.6395C190.466 36.971 190.645 37.3726 190.645 37.8444C190.645 38.3097 190.466 38.7113 190.109 39.0492C189.759 39.3807 189.335 39.5464 188.838 39.5464ZM204.567 45.3984L201.975 45.8574C201.867 45.5259 201.695 45.2104 201.459 44.9108C201.229 44.6111 200.917 44.3657 200.522 44.1745C200.127 43.9832 199.632 43.8876 199.04 43.8876C198.23 43.8876 197.554 44.0693 197.012 44.4326C196.471 44.7896 196.2 45.2518 196.2 45.8192C196.2 46.31 196.381 46.7052 196.745 47.0048C197.108 47.3045 197.695 47.5499 198.504 47.7411L200.837 48.2766C202.189 48.589 203.196 49.0703 203.859 49.7205C204.522 50.3707 204.853 51.2154 204.853 52.2544C204.853 53.1341 204.598 53.9182 204.088 54.6067C203.585 55.2888 202.88 55.8243 201.975 56.2131C201.076 56.602 200.034 56.7964 198.848 56.7964C197.204 56.7964 195.862 56.4458 194.823 55.7446C193.784 55.037 193.146 54.033 192.91 52.7325L195.674 52.3118C195.846 53.0322 196.2 53.5772 196.735 53.9469C197.271 54.3103 197.969 54.492 198.829 54.492C199.766 54.492 200.515 54.2975 201.076 53.9087C201.637 53.5134 201.918 53.0322 201.918 52.4648C201.918 52.0058 201.746 51.6201 201.401 51.3078C201.064 50.9954 200.544 50.7596 199.843 50.6002L197.357 50.0552C195.986 49.7428 194.973 49.2456 194.316 48.5635C193.666 47.8814 193.341 47.0176 193.341 45.9721C193.341 45.1052 193.583 44.3466 194.067 43.6964C194.552 43.0461 195.221 42.5394 196.075 42.176C196.93 41.8063 197.908 41.6214 199.011 41.6214C200.598 41.6214 201.848 41.9656 202.759 42.6541C203.671 43.3362 204.273 44.251 204.567 45.3984ZM210.317 47.7794V56.5H207.458V36.9169H210.279V44.2032H210.461C210.805 43.4127 211.331 42.7848 212.039 42.3194C212.746 41.8541 213.671 41.6214 214.812 41.6214C215.819 41.6214 216.699 41.8286 217.451 42.2429C218.209 42.6573 218.796 43.2756 219.21 44.098C219.631 44.9139 219.841 45.9339 219.841 47.1578V56.5H216.982V47.5021C216.982 46.4247 216.705 45.5897 216.15 44.9968C215.596 44.3976 214.824 44.098 213.836 44.098C213.161 44.098 212.555 44.2414 212.019 44.5283C211.49 44.8151 211.073 45.2359 210.767 45.7905C210.467 46.3387 210.317 47.0017 210.317 47.7794ZM223.348 56.5V36.9169H226.302V45.4271H236.065V36.9169H239.029V56.5H236.065V47.9611H226.302V56.5H223.348ZM248.751 56.7964C247.374 56.7964 246.172 56.4809 245.146 55.8498C244.12 55.2187 243.323 54.3358 242.755 53.2011C242.188 52.0664 241.904 50.7404 241.904 49.2233C241.904 47.6997 242.188 46.3674 242.755 45.2263C243.323 44.0852 244.12 43.1991 245.146 42.568C246.172 41.9369 247.374 41.6214 248.751 41.6214C250.128 41.6214 251.329 41.9369 252.356 42.568C253.382 43.1991 254.179 44.0852 254.746 45.2263C255.314 46.3674 255.597 47.6997 255.597 49.2233C255.597 50.7404 255.314 52.0664 254.746 53.2011C254.179 54.3358 253.382 55.2187 252.356 55.8498C251.329 56.4809 250.128 56.7964 248.751 56.7964ZM248.76 54.3963C249.653 54.3963 250.392 54.1605 250.979 53.6887C251.565 53.217 251.999 52.5891 252.279 51.805C252.566 51.0209 252.71 50.1572 252.71 49.2137C252.71 48.2766 252.566 47.416 252.279 46.6319C251.999 45.8415 251.565 45.2072 250.979 44.7291C250.392 44.251 249.653 44.0119 248.76 44.0119C247.862 44.0119 247.116 44.251 246.523 44.7291C245.936 45.2072 245.5 45.8415 245.213 46.6319C244.932 47.416 244.792 48.2766 244.792 49.2137C244.792 50.1572 244.932 51.0209 245.213 51.805C245.5 52.5891 245.936 53.217 246.523 53.6887C247.116 54.1605 247.862 54.3963 248.76 54.3963ZM269.256 45.3984L266.665 45.8574C266.556 45.5259 266.384 45.2104 266.148 44.9108C265.919 44.6111 265.607 44.3657 265.211 44.1745C264.816 43.9832 264.322 43.8876 263.729 43.8876C262.92 43.8876 262.244 44.0693 261.702 44.4326C261.16 44.7896 260.889 45.2518 260.889 45.8192C260.889 46.31 261.071 46.7052 261.434 47.0048C261.798 47.3045 262.384 47.5499 263.194 47.7411L265.527 48.2766C266.878 48.589 267.886 49.0703 268.549 49.7205C269.212 50.3707 269.543 51.2154 269.543 52.2544C269.543 53.1341 269.288 53.9182 268.778 54.6067C268.274 55.2888 267.57 55.8243 266.665 56.2131C265.766 56.602 264.724 56.7964 263.538 56.7964C261.893 56.7964 260.551 56.4458 259.512 55.7446C258.473 55.037 257.836 54.033 257.6 52.7325L260.363 52.3118C260.536 53.0322 260.889 53.5772 261.425 53.9469C261.96 54.3103 262.658 54.492 263.519 54.492C264.456 54.492 265.205 54.2975 265.766 53.9087C266.327 53.5134 266.607 53.0322 266.607 52.4648C266.607 52.0058 266.435 51.6201 266.091 51.3078C265.753 50.9954 265.234 50.7596 264.532 50.6002L262.046 50.0552C260.676 49.7428 259.662 49.2456 259.006 48.5635C258.355 47.8814 258.03 47.0176 258.03 45.9721C258.03 45.1052 258.272 44.3466 258.757 43.6964C259.241 43.0461 259.911 42.5394 260.765 42.176C261.619 41.8063 262.598 41.6214 263.701 41.6214C265.288 41.6214 266.537 41.9656 267.449 42.6541C268.36 43.3362 268.963 44.251 269.256 45.3984ZM279.004 41.8126V44.1075H270.981V41.8126H279.004ZM273.133 38.2938H275.992V52.1875C275.992 52.7421 276.075 53.1596 276.241 53.4401C276.406 53.7142 276.62 53.9023 276.881 54.0043C277.149 54.0999 277.439 54.1477 277.751 54.1477C277.981 54.1477 278.182 54.1318 278.354 54.0999C278.526 54.068 278.66 54.0425 278.755 54.0234L279.272 56.3853C279.106 56.449 278.87 56.5127 278.564 56.5765C278.258 56.6466 277.876 56.6849 277.417 56.6912C276.664 56.704 275.963 56.5701 275.313 56.2896C274.663 56.0091 274.137 55.5757 273.735 54.9892C273.334 54.4027 273.133 53.6664 273.133 52.7803V38.2938Z" fill="white"/>
</g>
<rect x="1216.5" y="23.5" width="144" height="46" rx="23" stroke="white"/>
<path d="M1246.72 44.5653C1246.67 44.1619 1246.49 43.8494 1246.16 43.6278C1245.83 43.4034 1245.41 43.2912 1244.91 43.2912C1244.55 43.2912 1244.24 43.348 1243.98 43.4616C1243.72 43.5724 1243.52 43.7259 1243.37 43.9219C1243.23 44.1151 1243.16 44.3352 1243.16 44.5824C1243.16 44.7898 1243.21 44.9687 1243.31 45.1193C1243.4 45.2699 1243.53 45.3963 1243.69 45.4986C1243.86 45.598 1244.03 45.6818 1244.21 45.75C1244.4 45.8153 1244.58 45.8693 1244.75 45.9119L1245.6 46.1335C1245.88 46.2017 1246.16 46.294 1246.45 46.4105C1246.75 46.527 1247.02 46.6804 1247.27 46.8707C1247.52 47.0611 1247.72 47.2969 1247.87 47.5781C1248.03 47.8594 1248.11 48.196 1248.11 48.5881C1248.11 49.0824 1247.98 49.5213 1247.72 49.9048C1247.47 50.2884 1247.1 50.5909 1246.62 50.8125C1246.14 51.0341 1245.56 51.1449 1244.88 51.1449C1244.22 51.1449 1243.66 51.0412 1243.18 50.8338C1242.7 50.6264 1242.33 50.3324 1242.06 49.9517C1241.79 49.5682 1241.64 49.1136 1241.61 48.5881H1242.93C1242.96 48.9034 1243.06 49.1662 1243.24 49.3764C1243.42 49.5838 1243.65 49.7386 1243.94 49.8409C1244.22 49.9403 1244.53 49.9901 1244.87 49.9901C1245.24 49.9901 1245.57 49.9318 1245.86 49.8153C1246.15 49.696 1246.38 49.5312 1246.55 49.321C1246.72 49.108 1246.8 48.8594 1246.8 48.5753C1246.8 48.3168 1246.73 48.1051 1246.58 47.9403C1246.44 47.7756 1246.24 47.6392 1245.99 47.5312C1245.74 47.4233 1245.46 47.3281 1245.15 47.2457L1244.12 46.9645C1243.42 46.7741 1242.87 46.4943 1242.46 46.125C1242.05 45.7557 1241.85 45.267 1241.85 44.6591C1241.85 44.1562 1241.98 43.7173 1242.26 43.3423C1242.53 42.9673 1242.9 42.6761 1243.37 42.4688C1243.83 42.2585 1244.36 42.1534 1244.94 42.1534C1245.53 42.1534 1246.05 42.2571 1246.51 42.4645C1246.96 42.6719 1247.32 42.9574 1247.58 43.321C1247.84 43.6818 1247.98 44.0966 1247.99 44.5653H1246.72ZM1249.01 43.4062V42.2727H1255.77V43.4062H1253.04V51H1251.73V43.4062H1249.01ZM1256.72 51H1255.33L1258.47 42.2727H1259.99L1263.13 51H1261.73L1259.26 43.858H1259.2L1256.72 51ZM1256.96 47.5824H1261.49V48.6903H1256.96V47.5824ZM1264.15 51V42.2727H1267.26C1267.94 42.2727 1268.5 42.3892 1268.94 42.6222C1269.39 42.8551 1269.73 43.1776 1269.95 43.5895C1270.17 43.9986 1270.28 44.4716 1270.28 45.0085C1270.28 45.5426 1270.17 46.0128 1269.94 46.419C1269.72 46.8224 1269.39 47.1364 1268.94 47.3608C1268.49 47.5852 1267.93 47.6974 1267.26 47.6974H1264.9V46.5639H1267.14C1267.56 46.5639 1267.91 46.5028 1268.18 46.3807C1268.45 46.2585 1268.64 46.081 1268.77 45.848C1268.89 45.6151 1268.96 45.3352 1268.96 45.0085C1268.96 44.679 1268.89 44.3935 1268.76 44.152C1268.64 43.9105 1268.44 43.7259 1268.17 43.598C1267.9 43.4673 1267.55 43.402 1267.12 43.402H1265.47V51H1264.15ZM1268.46 47.0625L1270.61 51H1269.11L1267 47.0625H1268.46ZM1271.21 43.4062V42.2727H1277.97V43.4062H1275.24V51H1273.93V43.4062H1271.21ZM1282.16 51V42.2727H1287.57V43.4062H1283.47V46.0653H1287.18V47.1946H1283.47V51H1282.16ZM1296.53 46.6364C1296.53 47.5682 1296.36 48.3693 1296.02 49.0398C1295.68 49.7074 1295.21 50.2216 1294.61 50.5824C1294.02 50.9403 1293.35 51.1193 1292.6 51.1193C1291.84 51.1193 1291.17 50.9403 1290.57 50.5824C1289.98 50.2216 1289.52 49.706 1289.18 49.0355C1288.84 48.3651 1288.67 47.5653 1288.67 46.6364C1288.67 45.7045 1288.84 44.9048 1289.18 44.2372C1289.52 43.5668 1289.98 43.0526 1290.57 42.6946C1291.17 42.3338 1291.84 42.1534 1292.6 42.1534C1293.35 42.1534 1294.02 42.3338 1294.61 42.6946C1295.21 43.0526 1295.68 43.5668 1296.02 44.2372C1296.36 44.9048 1296.53 45.7045 1296.53 46.6364ZM1295.22 46.6364C1295.22 45.9261 1295.11 45.3281 1294.88 44.8423C1294.65 44.3537 1294.34 43.9844 1293.94 43.7344C1293.55 43.4815 1293.1 43.3551 1292.6 43.3551C1292.1 43.3551 1291.65 43.4815 1291.25 43.7344C1290.86 43.9844 1290.54 44.3537 1290.31 44.8423C1290.09 45.3281 1289.97 45.9261 1289.97 46.6364C1289.97 47.3466 1290.09 47.946 1290.31 48.4347C1290.54 48.9205 1290.86 49.2898 1291.25 49.5426C1291.65 49.7926 1292.1 49.9176 1292.6 49.9176C1293.1 49.9176 1293.55 49.7926 1293.94 49.5426C1294.34 49.2898 1294.65 48.9205 1294.88 48.4347C1295.11 47.946 1295.22 47.3466 1295.22 46.6364ZM1297.93 51V42.2727H1301.04C1301.72 42.2727 1302.28 42.3892 1302.72 42.6222C1303.17 42.8551 1303.51 43.1776 1303.73 43.5895C1303.95 43.9986 1304.06 44.4716 1304.06 45.0085C1304.06 45.5426 1303.95 46.0128 1303.72 46.419C1303.5 46.8224 1303.17 47.1364 1302.72 47.3608C1302.27 47.5852 1301.71 47.6974 1301.04 47.6974H1298.68V46.5639H1300.92C1301.34 46.5639 1301.69 46.5028 1301.96 46.3807C1302.23 46.2585 1302.42 46.081 1302.55 45.848C1302.67 45.6151 1302.74 45.3352 1302.74 45.0085C1302.74 44.679 1302.67 44.3935 1302.54 44.152C1302.42 43.9105 1302.22 43.7259 1301.95 43.598C1301.69 43.4673 1301.33 43.402 1300.9 43.402H1299.25V51H1297.93ZM1302.24 47.0625L1304.39 51H1302.89L1300.78 47.0625H1302.24ZM1308.36 51V42.2727H1313.77V43.4062H1309.68V46.0653H1313.38V47.1946H1309.68V51H1308.36ZM1315.15 51V42.2727H1318.26C1318.94 42.2727 1319.5 42.3892 1319.94 42.6222C1320.39 42.8551 1320.73 43.1776 1320.95 43.5895C1321.17 43.9986 1321.28 44.4716 1321.28 45.0085C1321.28 45.5426 1321.17 46.0128 1320.95 46.419C1320.72 46.8224 1320.39 47.1364 1319.94 47.3608C1319.49 47.5852 1318.93 47.6974 1318.26 47.6974H1315.9V46.5639H1318.14C1318.56 46.5639 1318.91 46.5028 1319.18 46.3807C1319.45 46.2585 1319.65 46.081 1319.77 45.848C1319.9 45.6151 1319.96 45.3352 1319.96 45.0085C1319.96 44.679 1319.89 44.3935 1319.77 44.152C1319.64 43.9105 1319.44 43.7259 1319.17 43.598C1318.91 43.4673 1318.56 43.402 1318.12 43.402H1316.47V51H1315.15ZM1319.46 47.0625L1321.62 51H1320.12L1318 47.0625H1319.46ZM1322.65 51V42.2727H1328.12V43.4062H1323.96V46.0653H1327.83V47.1946H1323.96V49.8665H1328.17V51H1322.65ZM1329.64 51V42.2727H1335.11V43.4062H1330.95V46.0653H1334.82V47.1946H1330.95V49.8665H1335.16V51H1329.64Z" fill="white"/>
<rect x="572" y="704" width="282" height="328" fill="black" fill-opacity="0.2"/>
<ellipse cx="719.5" cy="1054" rx="1000.5" ry="189" fill="#111215"/>
</g>
<rect x="0.5" y="0.5" width="1439" height="1090" stroke="black"/>
<defs>
<filter id="filter0_b_2795_551" x="332" y="-100" width="776" height="1184" filterUnits="userSpaceOnUse" color-interpolation-filters="sRGB">
<feFlood flood-opacity="0" result="BackgroundImageFix"/>
<feGaussianBlur in="BackgroundImageFix" stdDeviation="62"/>
<feComposite in2="SourceAlpha" operator="in" result="effect1_backgroundBlur_2795_551"/>
<feBlend mode="normal" in="SourceGraphic" in2="effect1_backgroundBlur_2795_551" result="shape"/>
</filter>
<filter id="filter1_f_2795_551" x="-179" y="556" width="1878" height="785" filterUnits="userSpaceOnUse" color-interpolation-filters="sRGB">
<feFlood flood-opacity="0" result="BackgroundImageFix"/>
<feBlend mode="normal" in="SourceGraphic" in2="BackgroundImageFix" result="shape"/>
<feGaussianBlur stdDeviation="70.5" result="effect1_foregroundBlur_2795_551"/>
</filter>
<linearGradient id="paint0_linear_2795_551" x1="720" y1="-2.5" x2="720" y2="856.5" gradientUnits="userSpaceOnUse">
<stop stop-color="#FC9CFE" stop-opacity="0"/>
<stop offset="1" stop-color="#FC9CFE"/>
</linearGradient>
<radialGradient id="paint1_radial_2795_551" cx="0" cy="0" r="1" gradientUnits="userSpaceOnUse" gradientTransform="translate(699.622 243) scale(365.378 54.0124)">
<stop stop-color="white"/>
<stop offset="1" stop-color="white" stop-opacity="0.55"/>
</radialGradient>
<linearGradient id="paint2_linear_2795_551" x1="113.136" y1="27.5" x2="113.136" y2="46.0001" gradientUnits="userSpaceOnUse">
<stop stop-color="#FD42E9"/>
<stop offset="1" stop-color="#FF81ED"/>
</linearGradient>
<linearGradient id="paint3_linear_2795_551" x1="119.457" y1="46" x2="119.457" y2="64.4999" gradientUnits="userSpaceOnUse">
<stop stop-color="#FD42E9"/>
<stop offset="1" stop-color="#FF81ED"/>
</linearGradient>
<linearGradient id="paint4_linear_2795_551" x1="104.707" y1="46" x2="104.707" y2="64.5001" gradientUnits="userSpaceOnUse">
<stop stop-color="#FD42E9"/>
<stop offset="1" stop-color="#FF81ED"/>
</linearGradient>
<linearGradient id="paint5_linear_2795_551" x1="98.3904" y1="27.5" x2="98.3904" y2="46.0001" gradientUnits="userSpaceOnUse">
<stop stop-color="#FD42E9"/>
<stop offset="1" stop-color="#FF81ED"/>
</linearGradient>
<clipPath id="clip0_2795_551">
<rect width="1440" height="1091" fill="white"/>
</clipPath>
<clipPath id="clip1_2795_551">
<rect width="227" height="39" fill="white" transform="translate(80 27)"/>
</clipPath>
</defs>
</svg>
