<svg width="405" height="143" viewBox="0 0 405 143" fill="none" xmlns="http://www.w3.org/2000/svg">
<g opacity="0.4">
<path d="M249.444 116.697L248.839 116.255L249.063 115.947L249.444 115.947L249.444 116.697ZM233.293 138.834L233.898 139.276L233.674 139.584L233.293 139.584L233.293 138.834ZM152.758 138.834C152.758 136.625 154.549 134.834 156.758 134.834C158.967 134.834 160.758 136.625 160.758 138.834C160.758 141.043 158.967 142.834 156.758 142.834C154.549 142.834 152.758 141.043 152.758 138.834ZM404.999 117.447L249.444 117.447L249.444 115.947L404.999 115.947L404.999 117.447ZM250.05 117.139L233.898 139.276L232.687 138.392L248.839 116.255L250.05 117.139ZM233.293 139.584L156.758 139.584L156.758 138.084L233.293 138.084L233.293 139.584Z" fill="#37578E"/>
<path d="M212.427 32.0175L211.817 32.4532L212.041 32.7675L212.427 32.7675L212.427 32.0175ZM192.432 4.00002L193.042 3.56433L192.818 3.25002L192.432 3.25002L192.432 4.00002ZM93.6836 4C93.6836 6.20914 95.4745 8 97.6836 8C99.8927 8 101.684 6.20914 101.684 4C101.684 1.79086 99.8927 3.86258e-07 97.6836 0C95.4745 -3.86258e-07 93.6836 1.79086 93.6836 4ZM405 31.2675L212.427 31.2675L212.427 32.7675L405 32.7675L405 31.2675ZM213.038 31.5818L193.042 3.56433L191.821 4.4357L211.817 32.4532L213.038 31.5818ZM192.432 3.25002L97.6836 3.25L97.6836 4.75L192.432 4.75002L192.432 3.25002Z" fill="#37578E"/>
<path d="M244.923 99.2555L244.324 98.8046L244.549 98.5055L244.923 98.5055L244.923 99.2555ZM229.275 120.051L229.874 120.502L229.649 120.801L229.275 120.801L229.275 120.051ZM78.7969 120.051C78.7969 117.842 80.5877 116.051 82.7969 116.051C85.006 116.051 86.7969 117.842 86.7969 120.051C86.7969 122.26 85.006 124.051 82.7969 124.051C80.5877 124.051 78.7969 122.26 78.7969 120.051ZM404.998 100.006L244.923 100.006L244.923 98.5055L404.998 98.5055L404.998 100.006ZM245.523 99.7065L229.874 120.502L228.676 119.6L244.324 98.8046L245.523 99.7065ZM229.275 120.801L82.7969 120.801L82.7969 119.301L229.275 119.301L229.275 120.801Z" fill="#37578E"/>
<path d="M205.777 54.782L205.174 55.2287L205.399 55.532L205.777 55.532L205.777 54.782ZM186.302 28.5157L186.904 28.069L186.679 27.7657L186.302 27.7657L186.302 28.5157ZM0 28.5156C-3.86258e-07 30.7248 1.79086 32.5156 4 32.5156C6.20914 32.5156 8 30.7248 8 28.5156C8 26.3065 6.20914 24.5156 4 24.5156C1.79086 24.5156 3.86258e-07 26.3065 0 28.5156ZM405 54.0321L205.777 54.032L205.777 55.532L405 55.5321L405 54.0321ZM206.379 54.3353L186.904 28.069L185.699 28.9624L205.174 55.2287L206.379 54.3353ZM186.302 27.7657L4 27.7656L4 29.2656L186.302 29.2657L186.302 27.7657Z" fill="#37578E"/>
<path d="M236.565 85.8397L235.982 85.3679L236.207 85.0897L236.565 85.0897L236.565 85.8397ZM218.655 107.977L219.238 108.448L219.013 108.727L218.655 108.727L218.655 107.977ZM162.281 107.977C162.281 105.767 164.072 103.977 166.281 103.977C168.49 103.977 170.281 105.767 170.281 107.977C170.281 110.186 168.49 111.977 166.281 111.977C164.072 111.977 162.281 110.186 162.281 107.977ZM404.27 86.5897L236.565 86.5897L236.565 85.0897L404.27 85.0897L404.27 86.5897ZM237.148 86.3114L219.238 108.448L218.072 107.505L235.982 85.3679L237.148 86.3114ZM218.655 108.727L166.281 108.727L166.281 107.227L218.655 107.227L218.655 108.727Z" fill="#37578E"/>
<path d="M199.907 73.1689L199.302 73.6122L199.527 73.9189L199.907 73.9189L199.907 73.1689ZM178.097 43.4004L178.702 42.9572L178.478 42.6504L178.097 42.6504L178.097 43.4004ZM110.32 43.4004C110.32 45.6095 112.111 47.4004 114.32 47.4004C116.529 47.4004 118.32 45.6095 118.32 43.4004C118.32 41.1913 116.529 39.4004 114.32 39.4004C112.111 39.4004 110.32 41.1913 110.32 43.4004ZM404.126 72.419L199.907 72.4189L199.907 73.9189L404.126 73.919L404.126 72.419ZM200.512 72.7257L178.702 42.9572L177.492 43.8437L199.302 73.6122L200.512 72.7257ZM178.097 42.6504L114.32 42.6504L114.32 44.1504L178.097 44.1504L178.097 42.6504Z" fill="#37578E"/>
</g>
</svg>
