<svg width="326" height="164" viewBox="0 0 326 164" fill="none" xmlns="http://www.w3.org/2000/svg">
<g opacity="0.4">
<path d="M225.973 29L225.4 29.4835L225.624 29.75H225.973V29ZM204.892 4L205.465 3.51652L205.241 3.25H204.892V4ZM101 4C101 6.20914 102.791 8 105 8C107.209 8 109 6.20914 109 4C109 1.79086 107.209 0 105 0C102.791 0 101 1.79086 101 4ZM429 28.25H225.973V29.75H429V28.25ZM226.546 28.5165L205.465 3.51652L204.319 4.48348L225.4 29.4835L226.546 28.5165ZM204.892 3.25H105V4.75H204.892V3.25Z" fill="#37578E"/>
<path d="M288.1 128L287.444 127.636L287.658 127.25H288.1V128ZM270.355 160L271.011 160.364L270.796 160.75H270.355V160ZM182.27 160C182.27 157.791 184.06 156 186.27 156C188.479 156 190.27 157.791 190.27 160C190.27 162.209 188.479 164 186.27 164C184.06 164 182.27 162.209 182.27 160ZM459 128.75H288.1V127.25H459V128.75ZM288.756 128.364L271.011 160.364L269.699 159.636L287.444 127.636L288.756 128.364ZM270.355 160.75H186.27V159.25H270.355V160.75Z" fill="#37578E"/>
<path d="M217.854 49L217.285 49.489L217.509 49.75H217.854V49ZM197.213 25L197.781 24.511L197.557 24.25H197.213V25ZM0 25C0 27.2091 1.79086 29 4 29C6.20914 29 8 27.2091 8 25C8 22.7909 6.20914 21 4 21C1.79086 21 0 22.7909 0 25ZM429 48.25H217.854V49.75H429V48.25ZM218.422 48.511L197.781 24.511L196.644 25.489L217.285 49.489L218.422 48.511ZM197.213 24.25H4V25.75H197.213V24.25Z" fill="#37578E"/>
<path d="M282.203 102L281.553 101.626L281.769 101.25H282.203V102ZM264.92 132L265.57 132.374L265.353 132.75H264.92V132ZM99.1406 132C99.1406 129.791 100.931 128 103.141 128C105.35 128 107.141 129.791 107.141 132C107.141 134.209 105.35 136 103.141 136C100.931 136 99.1406 134.209 99.1406 132ZM458.999 102.75H282.203V101.25H458.999V102.75ZM282.853 102.374L265.57 132.374L264.27 131.626L281.553 101.626L282.853 102.374ZM264.92 132.75H103.141V131.25H264.92V132.75Z" fill="#37578E"/>
<path d="M203.209 65L202.658 65.5088L202.88 65.75H203.209V65ZM179.202 39L179.753 38.4912L179.53 38.25H179.202V39ZM105 39C105 41.2091 106.791 43 109 43C111.209 43 113 41.2091 113 39C113 36.7909 111.209 35 109 35C106.791 35 105 36.7909 105 39ZM428 64.25H203.209V65.75H428V64.25ZM203.76 64.4912L179.753 38.4912L178.651 39.5088L202.658 65.5088L203.76 64.4912ZM179.202 38.25H109V39.75H179.202V38.25Z" fill="#37578E"/>
<path d="M277.227 81.0854L276.576 80.7125L276.793 80.3354H277.227V81.0854ZM257.904 114.797L258.555 115.17L258.339 115.547H257.904V114.797ZM197.398 114.797C197.398 112.588 199.189 110.797 201.398 110.797C203.608 110.797 205.398 112.588 205.398 114.797C205.398 117.006 203.608 118.797 201.398 118.797C199.189 118.797 197.398 117.006 197.398 114.797ZM458.162 81.8354H277.227V80.3354H458.162V81.8354ZM277.878 81.4584L258.555 115.17L257.253 114.424L276.576 80.7125L277.878 81.4584ZM257.904 115.547H201.398V114.047H257.904V115.547Z" fill="#37578E"/>
</g>
</svg>
