<svg width="336" height="143" viewBox="0 0 336 143" fill="none" xmlns="http://www.w3.org/2000/svg">
<g opacity="0.4">
<path d="M86.5556 26.1369L87.1615 26.579L86.9368 26.8869H86.5556V26.1369ZM102.707 4L102.102 3.55794L102.326 3.25H102.707V4ZM183.242 4C183.242 6.20914 181.451 8 179.242 8C177.033 8 175.242 6.20914 175.242 4C175.242 1.79086 177.033 0 179.242 0C181.451 0 183.242 1.79086 183.242 4ZM-68.9988 25.3869H86.5556V26.8869H-68.9988V25.3869ZM85.9498 25.6949L102.102 3.55794L103.313 4.44206L87.1615 26.579L85.9498 25.6949ZM102.707 3.25H179.242V4.75H102.707V3.25Z" fill="#37578E"/>
<path d="M123.573 110.817L124.183 110.381L123.959 110.067H123.573V110.817ZM143.568 138.834L142.958 139.27L143.182 139.584H143.568V138.834ZM242.316 138.834C242.316 136.625 240.526 134.834 238.316 134.834C236.107 134.834 234.316 136.625 234.316 138.834C234.316 141.043 236.107 142.834 238.316 142.834C240.526 142.834 242.316 141.043 242.316 138.834ZM-69 111.567H123.573V110.067H-69V111.567ZM122.962 111.252L142.958 139.27L144.179 138.398L124.183 110.381L122.962 111.252ZM143.568 139.584H238.316V138.084H143.568V139.584Z" fill="#37578E"/>
<path d="M91.0767 43.5785L91.6759 44.0294L91.4509 44.3285H91.0767V43.5785ZM106.725 22.7832L106.126 22.3322L106.351 22.0332H106.725V22.7832ZM257.203 22.7832C257.203 24.9923 255.412 26.7832 253.203 26.7832C250.994 26.7832 249.203 24.9923 249.203 22.7832C249.203 20.5741 250.994 18.7832 253.203 18.7832C255.412 18.7832 257.203 20.5741 257.203 22.7832ZM-68.9976 42.8285H91.0767V44.3285H-68.9976V42.8285ZM90.4774 43.1275L106.126 22.3322L107.324 23.2342L91.6759 44.0294L90.4774 43.1275ZM106.725 22.0332H253.203V23.5332H106.725V22.0332Z" fill="#37578E"/>
<path d="M130.223 88.052L130.826 87.6053L130.601 87.302H130.223V88.052ZM149.698 114.318L149.096 114.765L149.321 115.068H149.698V114.318ZM336 114.318C336 112.109 334.209 110.318 332 110.318C329.791 110.318 328 112.109 328 114.318C328 116.527 329.791 118.318 332 118.318C334.209 118.318 336 116.527 336 114.318ZM-68.9998 88.802H130.223V87.302H-68.9998V88.802ZM129.621 88.4987L149.096 114.765L150.301 113.872L130.826 87.6053L129.621 88.4987ZM149.698 115.068H332V113.568H149.698V115.068Z" fill="#37578E"/>
<path d="M99.4346 56.9943L100.018 57.4661L99.7925 57.7443H99.4346V56.9943ZM117.345 34.8574L116.762 34.3857L116.987 34.1074H117.345V34.8574ZM173.719 34.8574C173.719 37.0666 171.928 38.8574 169.719 38.8574C167.51 38.8574 165.719 37.0666 165.719 34.8574C165.719 32.6483 167.51 30.8574 169.719 30.8574C171.928 30.8574 173.719 32.6483 173.719 34.8574ZM-68.2704 56.2443H99.4346V57.7443H-68.2704V56.2443ZM98.8515 56.5226L116.762 34.3857L117.928 35.3292L100.018 57.4661L98.8515 56.5226ZM117.345 34.1074H169.719V35.6074H117.345V34.1074Z" fill="#37578E"/>
<path d="M136.093 69.6651L136.698 69.2218L136.473 68.9151H136.093V69.6651ZM157.903 99.4336L157.298 99.8768L157.522 100.184H157.903V99.4336ZM225.68 99.4336C225.68 97.2245 223.889 95.4336 221.68 95.4336C219.471 95.4336 217.68 97.2245 217.68 99.4336C217.68 101.643 219.471 103.434 221.68 103.434C223.889 103.434 225.68 101.643 225.68 99.4336ZM-68.1258 70.4151H136.093V68.9151H-68.1258V70.4151ZM135.488 70.1083L157.298 99.8768L158.508 98.9903L136.698 69.2218L135.488 70.1083ZM157.903 100.184H221.68V98.6836H157.903V100.184Z" fill="#37578E"/>
</g>
</svg>
