<svg width="248" height="55" viewBox="0 0 248 55" fill="none" xmlns="http://www.w3.org/2000/svg">
<path d="M23.5278 35.9029C32.8092 35.9029 40.3333 28.3788 40.3333 19.0973C40.3333 9.81585 32.8092 2.29175 23.5278 2.29175H0V35.9029H23.5278Z" fill="white"/>
<path d="M0 2.29175L40.3333 52.7084H13.4444L0 35.9029V2.29175Z" fill="#545454"/>
<path d="M26.6563 35.6122C25.6427 35.803 24.5969 35.9029 23.5278 35.9029H0V2.29175L26.6563 35.6122Z" fill="#939393"/>
<path d="M67.9937 38.1332C65.6409 38.1332 63.6196 37.6627 61.9299 36.7215C60.2616 35.7591 58.9783 34.4116 58.0799 32.6791C57.1816 30.9252 56.7324 28.8611 56.7324 26.487C56.7324 24.1128 57.1816 22.0595 58.0799 20.327C58.9783 18.5945 60.2616 17.2577 61.9299 16.3166C63.6196 15.3541 65.6409 14.8728 67.9937 14.8728C69.5123 14.8728 70.9453 15.1081 72.2928 15.5786C73.6617 16.0492 74.7846 16.7229 75.6616 17.5999L74.3141 20.8724C73.3516 20.0596 72.3677 19.4714 71.3624 19.1078C70.3571 18.7228 69.277 18.5303 68.122 18.5303C65.8334 18.5303 64.0902 19.2254 62.8924 20.6157C61.6946 21.9846 61.0958 23.9417 61.0958 26.487C61.0958 29.0322 61.6946 31 62.8924 32.3903C64.0902 33.7806 65.8334 34.4757 68.122 34.4757C69.277 34.4757 70.3571 34.2939 71.3624 33.9303C72.3677 33.5453 73.3516 32.9464 74.3141 32.1336L75.6616 35.4061C74.7846 36.2617 73.6617 36.9354 72.2928 37.4274C70.9453 37.8979 69.5123 38.1332 67.9937 38.1332Z" fill="#A6A9A8"/>
<path d="M84.8873 38.1332C83.2617 38.1332 81.8501 37.8017 80.6523 37.1386C79.4545 36.4756 78.5241 35.5345 77.861 34.3153C77.198 33.0747 76.8665 31.6203 76.8665 29.952C76.8665 28.2836 77.198 26.8399 77.861 25.6207C78.5241 24.4016 79.4545 23.4604 80.6523 22.7974C81.8501 22.1343 83.2617 21.8028 84.8873 21.8028C86.5129 21.8028 87.9245 22.1343 89.1223 22.7974C90.3201 23.4604 91.2505 24.4016 91.9135 25.6207C92.5766 26.8399 92.9081 28.2836 92.9081 29.952C92.9081 31.6203 92.5766 33.0747 91.9135 34.3153C91.2505 35.5345 90.3201 36.4756 89.1223 37.1386C87.9245 37.8017 86.5129 38.1332 84.8873 38.1332ZM84.8873 35.0853C86.0851 35.0853 87.0476 34.6575 87.7748 33.802C88.502 32.925 88.8656 31.6417 88.8656 29.952C88.8656 28.2409 88.502 26.9682 87.7748 26.1341C87.0476 25.2785 86.0851 24.8507 84.8873 24.8507C83.6895 24.8507 82.727 25.2785 81.9998 26.1341C81.2726 26.9682 80.909 28.2409 80.909 29.952C80.909 31.6417 81.2726 32.925 81.9998 33.802C82.727 34.6575 83.6895 35.0853 84.8873 35.0853Z" fill="#A6A9A8"/>
<path d="M96.2824 37.8124V22.1236H100.197V24.5299C100.667 23.6743 101.319 23.0113 102.154 22.5407C102.988 22.0488 103.95 21.8028 105.041 21.8028C107.394 21.8028 108.934 22.8295 109.661 24.8828C110.153 23.9203 110.859 23.1717 111.779 22.637C112.698 22.0809 113.746 21.8028 114.923 21.8028C118.452 21.8028 120.217 23.9524 120.217 28.2516V37.8124H116.206V28.412C116.206 27.2142 116.003 26.3372 115.597 25.7811C115.212 25.225 114.549 24.947 113.607 24.947C112.559 24.947 111.736 25.3213 111.137 26.0699C110.538 26.7971 110.239 27.8131 110.239 29.1178V37.8124H106.228V28.412C106.228 27.2142 106.025 26.3372 105.619 25.7811C105.234 25.225 104.581 24.947 103.662 24.947C102.614 24.947 101.79 25.3213 101.191 26.0699C100.592 26.7971 100.293 27.8131 100.293 29.1178V37.8124H96.2824Z" fill="#A6A9A8"/>
<path d="M124.418 37.8124V22.1236H128.332V24.5299C128.803 23.6743 129.455 23.0113 130.289 22.5407C131.123 22.0488 132.086 21.8028 133.177 21.8028C135.529 21.8028 137.069 22.8295 137.797 24.8828C138.289 23.9203 138.994 23.1717 139.914 22.637C140.834 22.0809 141.882 21.8028 143.058 21.8028C146.588 21.8028 148.352 23.9524 148.352 28.2516V37.8124H144.342V28.412C144.342 27.2142 144.139 26.3372 143.732 25.7811C143.347 25.225 142.684 24.947 141.743 24.947C140.695 24.947 139.871 25.3213 139.273 26.0699C138.674 26.7971 138.374 27.8131 138.374 29.1178V37.8124H134.364V28.412C134.364 27.2142 134.161 26.3372 133.754 25.7811C133.369 25.225 132.717 24.947 131.797 24.947C130.749 24.947 129.926 25.3213 129.327 26.0699C128.728 26.7971 128.428 27.8131 128.428 29.1178V37.8124H124.418Z" fill="#A6A9A8"/>
<path d="M157.655 38.1332C156.521 38.1332 155.505 37.9193 154.607 37.4915C153.73 37.0424 153.035 36.4435 152.521 35.6949C152.03 34.9463 151.784 34.1014 151.784 33.1603C151.784 32.0053 152.083 31.0963 152.682 30.4332C153.281 29.7488 154.254 29.2568 155.601 28.9574C156.949 28.6579 158.756 28.5082 161.024 28.5082H162.146V27.8345C162.146 26.765 161.911 25.995 161.441 25.5245C160.97 25.0539 160.179 24.8186 159.066 24.8186C158.19 24.8186 157.291 24.9577 156.371 25.2357C155.452 25.4924 154.521 25.8988 153.58 26.4549L152.425 23.7278C152.981 23.3428 153.634 23.0113 154.382 22.7332C155.152 22.4338 155.954 22.2092 156.789 22.0595C157.644 21.8884 158.446 21.8028 159.195 21.8028C161.483 21.8028 163.184 22.3375 164.296 23.407C165.408 24.455 165.964 26.0913 165.964 28.3157V37.8124H162.211V35.3099C161.847 36.1868 161.27 36.882 160.478 37.3953C159.687 37.8872 158.746 38.1332 157.655 38.1332ZM158.489 35.3741C159.537 35.3741 160.403 35.0104 161.088 34.2832C161.794 33.556 162.146 32.6363 162.146 31.524V30.8182H161.056C159.045 30.8182 157.644 30.9786 156.853 31.2995C156.083 31.5989 155.698 32.155 155.698 32.9678C155.698 33.6736 155.944 34.2511 156.436 34.7003C156.928 35.1495 157.612 35.3741 158.489 35.3741Z" fill="#A6A9A8"/>
<path d="M170.035 37.8124V22.1236H173.949V24.562C174.484 23.6636 175.2 22.9792 176.099 22.5086C177.018 22.0381 178.045 21.8028 179.179 21.8028C182.879 21.8028 184.729 23.9524 184.729 28.2516V37.8124H180.719V28.444C180.719 27.2249 180.483 26.3372 180.013 25.7811C179.564 25.225 178.858 24.947 177.895 24.947C176.719 24.947 175.778 25.3213 175.072 26.0699C174.388 26.7971 174.045 27.7703 174.045 28.9895V37.8124H170.035Z" fill="#A6A9A8"/>
<path d="M194.834 38.1332C193.465 38.1332 192.257 37.8017 191.209 37.1386C190.182 36.4756 189.38 35.5345 188.802 34.3153C188.225 33.0747 187.936 31.6203 187.936 29.952C187.936 28.2622 188.225 26.8185 188.802 25.6207C189.38 24.4016 190.182 23.4604 191.209 22.7974C192.257 22.1343 193.465 21.8028 194.834 21.8028C195.946 21.8028 196.952 22.0488 197.85 22.5407C198.748 23.0327 199.422 23.685 199.871 24.4978V15.1936H203.882V37.8124H199.967V35.2136C199.54 36.112 198.866 36.8285 197.946 37.3632C197.026 37.8765 195.989 38.1332 194.834 38.1332ZM195.957 35.0853C197.155 35.0853 198.117 34.6575 198.845 33.802C199.572 32.925 199.935 31.6417 199.935 29.952C199.935 28.2409 199.572 26.9682 198.845 26.1341C198.117 25.2785 197.155 24.8507 195.957 24.8507C194.759 24.8507 193.797 25.2785 193.07 26.1341C192.342 26.9682 191.979 28.2409 191.979 29.952C191.979 31.6417 192.342 32.925 193.07 33.802C193.797 34.6575 194.759 35.0853 195.957 35.0853Z" fill="#A6A9A8"/>
<path d="M214.104 36.529V30.0161H207.751V27.1928H214.104V20.8724H217.055V27.1928H223.408V30.0161H217.055V36.529H214.104Z" fill="#A6A9A8"/>
<path d="M227.662 37.8124V15.1936H237.48C239.961 15.1936 241.875 15.7925 243.223 16.9903C244.57 18.1667 245.244 19.8243 245.244 21.9632C245.244 23.6529 244.806 25.0539 243.929 26.1661C243.052 27.257 241.79 27.9949 240.143 28.3799C241.234 28.7221 242.132 29.5456 242.838 30.8503L246.624 37.8124H242.1L238.186 30.5936C237.801 29.8878 237.341 29.4066 236.806 29.1499C236.293 28.8932 235.63 28.7649 234.817 28.7649H231.769V37.8124H227.662ZM231.769 25.717H236.774C239.768 25.717 241.266 24.4978 241.266 22.0595C241.266 19.6425 239.768 18.4341 236.774 18.4341H231.769V25.717Z" fill="#A6A9A8"/>
</svg>
