<svg width="223" height="55" viewBox="0 0 223 55" fill="none" xmlns="http://www.w3.org/2000/svg">
<path d="M39.1965 27.4999C35.1237 32.0504 29.2051 34.9141 22.6175 34.9141C16.03 34.9141 10.1114 32.0504 6.03857 27.4999C10.1114 22.9494 16.03 20.0857 22.6175 20.0857C29.2051 20.0857 35.1237 22.9494 39.1965 27.4999Z" fill="white"/>
<path fill-rule="evenodd" clip-rule="evenodd" d="M0.375 42.3283C0.375 30.0441 10.3334 20.0857 22.6176 20.0857C16.0301 20.0857 10.1115 22.9494 6.03871 27.4999C10.1115 32.0504 16.0302 34.9141 22.6177 34.9141C29.2052 34.9141 35.1238 32.0504 39.1966 27.4999C42.7187 31.4351 44.8603 36.6316 44.8603 42.3283V50.7311C44.8603 51.823 43.9751 52.7082 42.8831 52.7082H2.35212C1.26019 52.7082 0.375 51.823 0.375 50.7311V42.3283ZM39.1966 27.4999C39.1966 27.4999 39.1966 27.4999 39.1966 27.4999V27.4999Z" fill="#545454"/>
<path fill-rule="evenodd" clip-rule="evenodd" d="M14.2747 33.2967C11.0987 32.0107 8.28738 30.0125 6.03871 27.5001C10.1115 22.9496 16.0302 20.0859 22.6177 20.0859C29.2052 20.0859 35.1238 22.9496 39.1966 27.5001C39.1966 27.5 39.1966 27.5001 39.1966 27.5001C42.7186 23.5649 44.8603 18.3684 44.8603 12.6717V4.26888C44.8603 3.17694 43.9751 2.29175 42.8831 2.29175L2.35212 2.29175C1.26019 2.29175 0.375001 3.17694 0.375001 4.26887L0.375 12.6716C0.374999 22.0055 6.12427 29.9966 14.2747 33.2967Z" fill="white"/>
<path d="M79.6026 16.5643V38.9585H75.1109V29.4297H65.518V38.9585H61.0264V16.5643H65.518V25.7722H75.1109V16.5643H79.6026Z" fill="#A6A9A8"/>
<path d="M91.9161 39.2472C90.205 39.2472 88.665 38.8729 87.2961 38.1243C85.9272 37.3543 84.8471 36.2742 84.0557 34.8839C83.2857 33.4936 82.9007 31.8894 82.9007 30.0714C82.9007 28.2533 83.2964 26.6492 84.0877 25.2589C84.9005 23.8686 86.0021 22.7992 87.3923 22.0505C88.7826 21.2805 90.3333 20.8955 92.0444 20.8955C93.7555 20.8955 95.3062 21.2805 96.6965 22.0505C98.0868 22.7992 99.1776 23.8686 99.969 25.2589C100.782 26.6492 101.188 28.2533 101.188 30.0714C101.188 31.8894 100.771 33.4936 99.9369 34.8839C99.1241 36.2742 98.0119 37.3543 96.6002 38.1243C95.21 38.8729 93.6486 39.2472 91.9161 39.2472ZM91.9161 35.333C92.7289 35.333 93.4882 35.1405 94.194 34.7555C94.9212 34.3492 95.4987 33.7503 95.9265 32.9589C96.3543 32.1675 96.5682 31.205 96.5682 30.0714C96.5682 28.3817 96.119 27.0876 95.2207 26.1893C94.3437 25.2696 93.2636 24.8097 91.9802 24.8097C90.6969 24.8097 89.6168 25.2696 88.7398 26.1893C87.8843 27.0876 87.4565 28.3817 87.4565 30.0714C87.4565 31.7611 87.8736 33.0658 88.7077 33.9855C89.5633 34.8839 90.6327 35.333 91.9161 35.333Z" fill="#A6A9A8"/>
<path d="M121.263 21.1843V38.9585H116.739V36.7126C116.161 37.4826 115.402 38.0922 114.461 38.5414C113.541 38.9692 112.536 39.183 111.445 39.183C110.055 39.183 108.825 38.8943 107.755 38.3168C106.686 37.7179 105.841 36.8517 105.221 35.718C104.622 34.563 104.323 33.1942 104.323 31.6114V21.1843H108.814V30.9697C108.814 32.3814 109.167 33.4722 109.873 34.2422C110.579 34.9908 111.541 35.3651 112.76 35.3651C114.001 35.3651 114.974 34.9908 115.68 34.2422C116.386 33.4722 116.739 32.3814 116.739 30.9697V21.1843H121.263Z" fill="#A6A9A8"/>
<path d="M130.186 23.9435C130.763 23.0024 131.512 22.2644 132.432 21.7297C133.373 21.195 134.442 20.9276 135.64 20.9276V25.6439H134.453C133.041 25.6439 131.972 25.9754 131.245 26.6385C130.539 27.3015 130.186 28.4565 130.186 30.1035V38.9585H125.694V21.1843H130.186V23.9435Z" fill="#A6A9A8"/>
<path d="M145.628 20.8955C146.954 20.8955 148.119 21.1629 149.125 21.6976C150.13 22.211 150.921 22.8847 151.499 23.7189V21.1843H156.023V39.0868C156.023 40.7337 155.691 42.1989 155.028 43.4822C154.365 44.7869 153.37 45.8136 152.044 46.5622C150.718 47.3322 149.114 47.7172 147.232 47.7172C144.708 47.7172 142.633 47.129 141.008 45.9526C139.403 44.7762 138.494 43.1721 138.28 41.1401H142.74C142.975 41.9529 143.478 42.5946 144.248 43.0651C145.039 43.5571 145.991 43.803 147.103 43.803C148.408 43.803 149.467 43.4073 150.28 42.616C151.092 41.846 151.499 40.6696 151.499 39.0868V36.3276C150.921 37.1618 150.119 37.8569 149.093 38.413C148.087 38.9692 146.932 39.2472 145.628 39.2472C144.13 39.2472 142.761 38.8622 141.521 38.0922C140.28 37.3222 139.296 36.2421 138.569 34.8518C137.863 33.4401 137.51 31.8253 137.51 30.0072C137.51 28.2105 137.863 26.6171 138.569 25.2268C139.296 23.8365 140.27 22.7671 141.489 22.0185C142.729 21.2699 144.109 20.8955 145.628 20.8955ZM151.499 30.0714C151.499 28.9805 151.285 28.0501 150.857 27.2801C150.429 26.4887 149.852 25.8899 149.125 25.4835C148.397 25.0557 147.617 24.8418 146.783 24.8418C145.948 24.8418 145.178 25.045 144.473 25.4514C143.767 25.8578 143.189 26.4567 142.74 27.248C142.312 28.018 142.098 28.9378 142.098 30.0072C142.098 31.0767 142.312 32.0178 142.74 32.8305C143.189 33.6219 143.767 34.2315 144.473 34.6593C145.2 35.0871 145.97 35.301 146.783 35.301C147.617 35.301 148.397 35.0978 149.125 34.6914C149.852 34.2636 150.429 33.6647 150.857 32.8947C151.285 32.1033 151.499 31.1622 151.499 30.0714Z" fill="#A6A9A8"/>
<path d="M164.901 15.2168V38.9585H160.409V15.2168H164.901Z" fill="#A6A9A8"/>
<path d="M168.184 30.0072C168.184 28.2105 168.537 26.6171 169.243 25.2268C169.97 23.8365 170.943 22.7671 172.162 22.0185C173.403 21.2699 174.782 20.8955 176.301 20.8955C177.627 20.8955 178.782 21.1629 179.766 21.6976C180.771 22.2324 181.573 22.9061 182.172 23.7189V21.1843H186.696V38.9585H182.172V36.3597C181.595 37.1939 180.793 37.889 179.766 38.4451C178.761 38.9799 177.595 39.2472 176.269 39.2472C174.772 39.2472 173.403 38.8622 172.162 38.0922C170.943 37.3222 169.97 36.2421 169.243 34.8518C168.537 33.4401 168.184 31.8253 168.184 30.0072ZM182.172 30.0714C182.172 28.9805 181.958 28.0501 181.531 27.2801C181.103 26.4887 180.525 25.8899 179.798 25.4835C179.071 25.0557 178.29 24.8418 177.456 24.8418C176.622 24.8418 175.852 25.045 175.146 25.4514C174.44 25.8578 173.863 26.4567 173.413 27.248C172.986 28.018 172.772 28.9378 172.772 30.0072C172.772 31.0767 172.986 32.0178 173.413 32.8305C173.863 33.6219 174.44 34.2315 175.146 34.6593C175.873 35.0871 176.643 35.301 177.456 35.301C178.29 35.301 179.071 35.0978 179.798 34.6914C180.525 34.2636 181.103 33.6647 181.531 32.8947C181.958 32.1033 182.172 31.1622 182.172 30.0714Z" fill="#A6A9A8"/>
<path d="M197.884 39.2472C196.43 39.2472 195.125 38.9905 193.97 38.4772C192.815 37.9425 191.896 37.226 191.211 36.3276C190.548 35.4293 190.184 34.4347 190.12 33.3439H194.644C194.73 34.0283 195.061 34.5951 195.639 35.0443C196.238 35.4935 196.975 35.718 197.852 35.718C198.708 35.718 199.371 35.5469 199.842 35.2047C200.334 34.8625 200.579 34.424 200.579 33.8893C200.579 33.3118 200.28 32.884 199.681 32.606C199.104 32.3065 198.173 31.9857 196.89 31.6435C195.564 31.3226 194.473 30.9911 193.617 30.6489C192.783 30.3067 192.056 29.7826 191.436 29.0768C190.837 28.371 190.537 27.4192 190.537 26.2214C190.537 25.2375 190.815 24.3392 191.372 23.5264C191.949 22.7136 192.762 22.0719 193.81 21.6014C194.879 21.1308 196.131 20.8955 197.564 20.8955C199.681 20.8955 201.371 21.4303 202.633 22.4997C203.895 23.5478 204.59 24.9701 204.718 26.7668H200.419C200.355 26.061 200.055 25.5049 199.521 25.0985C199.007 24.6707 198.312 24.4568 197.435 24.4568C196.623 24.4568 195.992 24.6065 195.542 24.906C195.115 25.2054 194.901 25.6225 194.901 26.1572C194.901 26.7561 195.2 27.216 195.799 27.5368C196.398 27.8362 197.328 28.1464 198.59 28.4672C199.874 28.788 200.932 29.1196 201.767 29.4618C202.601 29.804 203.317 30.3387 203.916 31.066C204.536 31.7718 204.857 32.7129 204.879 33.8893C204.879 34.916 204.59 35.8357 204.012 36.6485C203.456 37.4612 202.644 38.1029 201.574 38.5735C200.526 39.0226 199.296 39.2472 197.884 39.2472Z" fill="#A6A9A8"/>
<path d="M215.367 39.2472C213.913 39.2472 212.608 38.9905 211.453 38.4772C210.298 37.9425 209.378 37.226 208.694 36.3276C208.031 35.4293 207.667 34.4347 207.603 33.3439H212.127C212.213 34.0283 212.544 34.5951 213.122 35.0443C213.72 35.4935 214.458 35.718 215.335 35.718C216.191 35.718 216.854 35.5469 217.324 35.2047C217.816 34.8625 218.062 34.424 218.062 33.8893C218.062 33.3118 217.763 32.884 217.164 32.606C216.587 32.3065 215.656 31.9857 214.373 31.6435C213.047 31.3226 211.956 30.9911 211.1 30.6489C210.266 30.3067 209.539 29.7826 208.919 29.0768C208.32 28.371 208.02 27.4192 208.02 26.2214C208.02 25.2375 208.298 24.3392 208.854 23.5264C209.432 22.7136 210.245 22.0719 211.293 21.6014C212.362 21.1308 213.613 20.8955 215.047 20.8955C217.164 20.8955 218.854 21.4303 220.116 22.4997C221.378 23.5478 222.073 24.9701 222.201 26.7668H217.902C217.838 26.061 217.538 25.5049 217.004 25.0985C216.49 24.6707 215.795 24.4568 214.918 24.4568C214.105 24.4568 213.474 24.6065 213.025 24.906C212.598 25.2054 212.384 25.6225 212.384 26.1572C212.384 26.7561 212.683 27.216 213.282 27.5368C213.881 27.8362 214.811 28.1464 216.073 28.4672C217.357 28.788 218.415 29.1196 219.249 29.4618C220.084 29.804 220.8 30.3387 221.399 31.066C222.019 31.7718 222.34 32.7129 222.362 33.8893C222.362 34.916 222.073 35.8357 221.495 36.6485C220.939 37.4612 220.126 38.1029 219.057 38.5735C218.009 39.0226 216.779 39.2472 215.367 39.2472Z" fill="#A6A9A8"/>
</svg>
