<svg width="22" height="22" viewBox="0 0 22 22" fill="none" xmlns="http://www.w3.org/2000/svg">
<path d="M10.74 5.60938C13.6931 5.60938 16.1306 8.04688 16.1306 11C16.1306 14 13.6931 16.3906 10.74 16.3906C7.74 16.3906 5.34937 14 5.34937 11C5.34937 8.04688 7.74 5.60938 10.74 5.60938ZM10.74 14.5156C12.6619 14.5156 14.2087 12.9688 14.2087 11C14.2087 9.07812 12.6619 7.53125 10.74 7.53125C8.77125 7.53125 7.22437 9.07812 7.22437 11C7.22437 12.9688 8.81812 14.5156 10.74 14.5156ZM17.5837 5.42188C17.5837 6.125 17.0212 6.6875 16.3181 6.6875C15.615 6.6875 15.0525 6.125 15.0525 5.42188C15.0525 4.71875 15.615 4.15625 16.3181 4.15625C17.0212 4.15625 17.5837 4.71875 17.5837 5.42188ZM21.1462 6.6875C21.24 8.42188 21.24 13.625 21.1462 15.3594C21.0525 17.0469 20.6775 18.5 19.4587 19.7656C18.24 20.9844 16.74 21.3594 15.0525 21.4531C13.3181 21.5469 8.115 21.5469 6.38062 21.4531C4.69312 21.3594 3.24 20.9844 1.97437 19.7656C0.755625 18.5 0.380625 17.0469 0.286875 15.3594C0.193125 13.625 0.193125 8.42188 0.286875 6.6875C0.380625 5 0.755625 3.5 1.97437 2.28125C3.24 1.0625 4.69312 0.6875 6.38062 0.59375C8.115 0.5 13.3181 0.5 15.0525 0.59375C16.74 0.6875 18.24 1.0625 19.4587 2.28125C20.6775 3.5 21.0525 5 21.1462 6.6875ZM18.8962 17.1875C19.4587 15.8281 19.3181 12.5469 19.3181 11C19.3181 9.5 19.4587 6.21875 18.8962 4.8125C18.5212 3.92188 17.8181 3.17188 16.9275 2.84375C15.5212 2.28125 12.24 2.42188 10.74 2.42188C9.19312 2.42188 5.91187 2.28125 4.5525 2.84375C3.615 3.21875 2.91187 3.92188 2.53687 4.8125C1.97437 6.21875 2.115 9.5 2.115 11C2.115 12.5469 1.97437 15.8281 2.53687 17.1875C2.91187 18.125 3.615 18.8281 4.5525 19.2031C5.91187 19.7656 9.19312 19.625 10.74 19.625C12.24 19.625 15.5212 19.7656 16.9275 19.2031C17.8181 18.8281 18.5681 18.125 18.8962 17.1875Z" fill="white"/>
</svg>
