<svg width="168" height="55" viewBox="0 0 168 55" fill="none" xmlns="http://www.w3.org/2000/svg">
<path d="M15.8802 25.5731C16.8224 22.0573 20.4362 18.4435 23.952 17.5013L45.8706 11.6274C49.3863 10.6852 51.4726 12.7714 50.5304 16.2872L44.6564 38.2058C43.7143 41.7215 40.1004 45.3354 36.5847 46.2775L14.6661 52.1515C11.1504 53.0937 9.06408 51.0074 10.0063 47.4917L15.8802 25.5731Z" fill="#545454"/>
<path d="M7.09335 16.7857C8.03553 13.27 11.6494 9.65614 15.1651 8.71396L37.0837 2.83999C40.5995 1.89782 42.6857 3.98409 41.7436 7.49981L35.8696 29.4184C34.9274 32.9342 31.3136 36.548 27.7979 37.4902L5.87921 43.3641C2.36349 44.3063 0.277213 42.22 1.21939 38.7043L7.09335 16.7857Z" fill="white"/>
<path d="M70.897 36.0066H78.4366V38.9583H67.2395V16.6604H70.897V36.0066Z" fill="#A6A9A8"/>
<path d="M80.2761 30.0391C80.2761 28.2639 80.6397 26.6918 81.3669 25.3229C82.1156 23.954 83.1208 22.8953 84.3828 22.1467C85.6661 21.3767 87.0778 20.9917 88.6178 20.9917C90.0081 20.9917 91.2165 21.2697 92.2432 21.8258C93.2912 22.3605 94.1254 23.0343 94.7457 23.8471V21.2804H98.4353V38.9583H94.7457V36.3275C94.1254 37.1616 93.2806 37.8568 92.2111 38.4129C91.1417 38.969 89.9225 39.2471 88.5536 39.2471C87.035 39.2471 85.6447 38.8621 84.3828 38.0921C83.1208 37.3007 82.1156 36.2098 81.3669 34.8196C80.6397 33.4079 80.2761 31.8144 80.2761 30.0391ZM94.7457 30.1033C94.7457 28.8841 94.489 27.8254 93.9757 26.9271C93.4837 26.0287 92.8314 25.3443 92.0186 24.8737C91.2058 24.4032 90.3289 24.1679 89.3878 24.1679C88.4467 24.1679 87.5697 24.4032 86.7569 24.8737C85.9442 25.3229 85.2811 25.9966 84.7678 26.895C84.2758 27.7719 84.0299 28.82 84.0299 30.0391C84.0299 31.2583 84.2758 32.3278 84.7678 33.2475C85.2811 34.1672 85.9442 34.873 86.7569 35.365C87.5911 35.8355 88.4681 36.0708 89.3878 36.0708C90.3289 36.0708 91.2058 35.8355 92.0186 35.365C92.8314 34.8944 93.4837 34.21 93.9757 33.3116C94.489 32.3919 94.7457 31.3225 94.7457 30.1033Z" fill="#A6A9A8"/>
<path d="M119.153 21.2804L108.308 47.2679H104.523L108.116 38.6696L101.154 21.2804H105.228L110.201 34.7554L115.367 21.2804H119.153Z" fill="#A6A9A8"/>
<path d="M138.115 29.6862C138.115 30.3493 138.072 30.9482 137.986 31.4829H124.479C124.586 32.8946 125.11 34.0282 126.051 34.8837C126.993 35.7393 128.148 36.1671 129.516 36.1671C131.484 36.1671 132.875 35.3436 133.687 33.6966H137.634C137.099 35.3222 136.126 36.659 134.714 37.7071C133.324 38.7337 131.591 39.2471 129.516 39.2471C127.827 39.2471 126.308 38.8728 124.961 38.1241C123.635 37.3541 122.586 36.2847 121.816 34.9158C121.068 33.5255 120.694 31.9214 120.694 30.1033C120.694 28.2853 121.057 26.6918 121.784 25.3229C122.533 23.9326 123.57 22.8632 124.896 22.1146C126.244 21.366 127.784 20.9917 129.516 20.9917C131.185 20.9917 132.671 21.3553 133.976 22.0825C135.281 22.8097 136.297 23.8364 137.024 25.1625C137.751 26.4672 138.115 27.9751 138.115 29.6862ZM134.297 28.5312C134.276 27.1837 133.794 26.1036 132.853 25.2908C131.912 24.478 130.746 24.0717 129.356 24.0717C128.094 24.0717 127.014 24.478 126.116 25.2908C125.217 26.0822 124.683 27.1623 124.511 28.5312H134.297Z" fill="#A6A9A8"/>
<path d="M145.372 23.8471C145.906 22.9487 146.612 22.2536 147.489 21.7617C148.388 21.2483 149.446 20.9917 150.665 20.9917V24.7775H149.735C148.302 24.7775 147.211 25.1411 146.463 25.8683C145.735 26.5955 145.372 27.8575 145.372 29.6541V38.9583H141.714V21.2804H145.372V23.8471Z" fill="#A6A9A8"/>
<path d="M160.444 39.2471C159.054 39.2471 157.803 39.0011 156.69 38.5091C155.599 37.9958 154.733 37.3114 154.092 36.4558C153.45 35.5789 153.108 34.6057 153.065 33.5362H156.851C156.915 34.2848 157.268 34.9158 157.909 35.4291C158.573 35.9211 159.396 36.1671 160.38 36.1671C161.407 36.1671 162.198 35.9746 162.754 35.5896C163.332 35.1832 163.62 34.6698 163.62 34.0496C163.62 33.3865 163.299 32.8946 162.658 32.5737C162.038 32.2529 161.043 31.9 159.674 31.515C158.348 31.1514 157.268 30.7985 156.434 30.4562C155.599 30.114 154.872 29.59 154.252 28.8841C153.653 28.1783 153.354 27.2479 153.354 26.0929C153.354 25.1518 153.632 24.2962 154.188 23.5262C154.744 22.7348 155.535 22.1146 156.562 21.6654C157.61 21.2162 158.808 20.9917 160.155 20.9917C162.166 20.9917 163.781 21.505 165 22.5317C166.24 23.5369 166.904 24.9165 166.989 26.6704H163.332C163.267 25.879 162.947 25.248 162.369 24.7775C161.792 24.3069 161.011 24.0717 160.027 24.0717C159.064 24.0717 158.327 24.2535 157.813 24.6171C157.3 24.9807 157.043 25.4619 157.043 26.0608C157.043 26.5314 157.214 26.9271 157.557 27.2479C157.899 27.5687 158.316 27.8254 158.808 28.0179C159.3 28.189 160.027 28.4136 160.989 28.6916C162.273 29.0339 163.321 29.3868 164.134 29.7504C164.968 30.0926 165.684 30.606 166.283 31.2904C166.882 31.9748 167.192 32.8839 167.214 34.0175C167.214 35.0228 166.936 35.9211 166.379 36.7125C165.823 37.5039 165.032 38.1241 164.005 38.5733C163 39.0225 161.813 39.2471 160.444 39.2471Z" fill="#A6A9A8"/>
</svg>
