<svg width="43" height="38" viewBox="0 0 43 38" fill="none" xmlns="http://www.w3.org/2000/svg">
<path d="M42.9993 19.0001C42.9993 14.0936 41.2227 9.38796 38.0603 5.91854C34.8978 2.44911 30.6087 0.500001 26.1364 0.5C21.6641 0.499999 17.3749 2.44911 14.2125 5.91854C11.0501 9.38796 9.27344 14.0936 9.27344 19.0001H14.5432C16.2894 19.0001 17.6513 17.3946 18.2909 15.612C18.7108 14.4416 19.348 13.366 20.1744 12.4593C21.7556 10.7246 23.9002 9.75002 26.1364 9.75002C28.3725 9.75002 30.5172 10.7246 32.0984 12.4593C33.6796 14.194 34.5678 16.5468 34.5678 19.0001H42.9993Z" fill="url(#paint0_linear_2644_88)"/>
<path d="M33.2863 26.0796C34.1337 23.8351 34.57 21.4294 34.57 19H43.0005C43.0005 29.2173 35.4507 37.4999 26.1375 37.4999C24.6791 37.4999 23.2637 37.2968 21.9141 36.915C22.6777 36.6991 23.4283 36.4242 24.1601 36.0917C26.206 35.162 28.065 33.7994 29.6309 32.0815C31.1968 30.3636 32.4389 28.3241 33.2863 26.0796Z" fill="url(#paint1_linear_2644_88)"/>
<path d="M0.84375 19C0.84375 21.4295 1.27992 23.8352 2.12736 26.0797C2.97481 28.3243 4.21692 30.3637 5.78279 32.0816C7.34866 33.7994 9.20762 35.1621 11.2535 36.0919C13.2994 37.0216 15.4922 37.5001 17.7067 37.5001C19.9211 37.5001 22.1139 37.0216 24.1598 36.0919C26.2058 35.1621 28.0647 33.7994 29.6306 32.0816C31.1965 30.3637 32.4385 28.3243 33.286 26.0797C34.1335 23.8352 34.5697 21.4295 34.5697 19H29.2999C27.5537 19 26.1918 20.6054 25.5522 22.388C25.5341 22.4388 25.5154 22.4894 25.4964 22.5399C25.0726 23.6621 24.4516 24.6819 23.6686 25.5408C22.8857 26.3997 21.9562 27.0811 20.9333 27.546C19.9104 28.0109 18.814 28.2501 17.7067 28.2501C16.5995 28.2501 15.5031 28.0109 14.4802 27.546C13.4571 27.0811 12.5277 26.3997 11.7447 25.5408C10.9618 24.6819 10.3408 23.6621 9.91703 22.5399C9.49331 21.4176 9.27522 20.2148 9.27522 19H0.84375Z" fill="url(#paint2_linear_2644_88)"/>
<path d="M0.847656 19.0001C0.847656 8.78272 8.39743 0.5 17.7105 0.5C19.1687 0.5 20.5836 0.703031 21.9331 1.08475C19.0374 1.90315 16.3661 3.55937 14.2156 5.91855C11.0532 9.38794 9.27657 14.0936 9.27657 19.0001H0.847656Z" fill="url(#paint3_linear_2644_88)"/>
<defs>
<linearGradient id="paint0_linear_2644_88" x1="26.1364" y1="0.5" x2="26.1364" y2="19.0001" gradientUnits="userSpaceOnUse">
<stop stop-color="#FD42E9"/>
<stop offset="1" stop-color="#FF81ED"/>
</linearGradient>
<linearGradient id="paint1_linear_2644_88" x1="32.4573" y1="19" x2="32.4573" y2="37.4999" gradientUnits="userSpaceOnUse">
<stop stop-color="#FD42E9"/>
<stop offset="1" stop-color="#FF81ED"/>
</linearGradient>
<linearGradient id="paint2_linear_2644_88" x1="17.7067" y1="19" x2="17.7067" y2="37.5001" gradientUnits="userSpaceOnUse">
<stop stop-color="#FD42E9"/>
<stop offset="1" stop-color="#FF81ED"/>
</linearGradient>
<linearGradient id="paint3_linear_2644_88" x1="11.3904" y1="0.5" x2="11.3904" y2="19.0001" gradientUnits="userSpaceOnUse">
<stop stop-color="#FD42E9"/>
<stop offset="1" stop-color="#FF81ED"/>
</linearGradient>
</defs>
</svg>
