<svg width="215" height="55" viewBox="0 0 215 55" fill="none" xmlns="http://www.w3.org/2000/svg">
<path fill-rule="evenodd" clip-rule="evenodd" d="M25.3333 41.7848C33.2226 41.7848 39.618 35.3893 39.618 27.5001C39.618 19.6108 33.2226 13.2154 25.3333 13.2154C17.4441 13.2154 11.0486 19.6108 11.0486 27.5001C11.0486 35.3893 17.4441 41.7848 25.3333 41.7848ZM25.3333 52.7084C39.2555 52.7084 50.5417 41.4223 50.5417 27.5001C50.5417 13.5779 39.2555 2.29175 25.3333 2.29175C11.4112 2.29175 0.125 13.5779 0.125 27.5001C0.125 41.4223 11.4112 52.7084 25.3333 52.7084Z" fill="white"/>
<path d="M25.6217 28.0519C28.2469 25.4267 32.5031 25.4267 35.1283 28.0519L48.2 41.1236C50.8252 43.7488 50.8252 48.005 48.2 50.6302C45.5748 53.2554 41.3185 53.2554 38.6933 50.6302L25.6217 37.5586C22.9965 34.9334 22.9965 30.6771 25.6217 28.0519Z" fill="#545454"/>
<path d="M29.292 41.2293L37.5939 49.5312C41.5759 47.3104 44.8934 44.0413 47.1733 40.0972L38.9393 31.8633C37.493 36.3772 33.8628 39.9136 29.292 41.2293Z" fill="#5A5A5A"/>
<path d="M91.2417 41.3648C90.5145 42.2632 89.6269 42.9476 88.5788 43.4181C87.5521 43.8887 86.4185 44.124 85.178 44.124C83.5096 44.124 82.0017 43.7604 80.6542 43.0331C79.3067 42.3273 77.7667 41.0654 76.0342 39.2473C74.0023 38.9907 72.1842 38.3383 70.5801 37.2902C68.9973 36.2422 67.7567 34.8947 66.8584 33.2477C65.9814 31.5794 65.543 29.74 65.543 27.7294C65.543 25.5263 66.067 23.5479 67.1151 21.794C68.1845 20.0187 69.6496 18.6284 71.5105 17.6232C73.3927 16.6179 75.4995 16.1152 77.8309 16.1152C80.1623 16.1152 82.2584 16.6179 84.1192 17.6232C85.9801 18.6284 87.4452 20.0187 88.5146 21.794C89.5841 23.5479 90.1188 25.5263 90.1188 27.7294C90.1188 30.3388 89.3809 32.6275 87.9051 34.5952C86.4506 36.563 84.5149 37.9319 82.098 38.7019C82.6327 39.258 83.146 39.6537 83.638 39.889C84.1513 40.1457 84.6967 40.274 85.2742 40.274C86.6645 40.274 87.8837 39.7179 88.9317 38.6056L91.2417 41.3648ZM70.8046 27.7294C70.8046 29.1197 71.1041 30.3602 71.703 31.4511C72.3232 32.5419 73.1681 33.3975 74.2376 34.0177C75.307 34.6166 76.5048 34.9161 77.8309 34.9161C79.157 34.9161 80.3548 34.6166 81.4242 34.0177C82.4937 33.3975 83.3278 32.5419 83.9267 31.4511C84.547 30.3602 84.8571 29.1197 84.8571 27.7294C84.8571 26.3391 84.547 25.0986 83.9267 24.0077C83.3278 22.9169 82.4937 22.072 81.4242 21.4732C80.3548 20.8529 79.157 20.5427 77.8309 20.5427C76.5048 20.5427 75.307 20.8529 74.2376 21.4732C73.1681 22.072 72.3232 22.9169 71.703 24.0077C71.1041 25.0986 70.8046 26.3391 70.8046 27.7294Z" fill="#A6A9A8"/>
<path d="M111.061 21.6977V38.9586H106.313V36.9052C105.65 37.6538 104.858 38.2313 103.939 38.6377C103.019 39.0227 102.024 39.2152 100.955 39.2152C98.6877 39.2152 96.8911 38.5629 95.5649 37.2582C94.2388 35.9534 93.5758 34.0177 93.5758 31.4511V21.6977H98.5808V30.7132C98.5808 33.4937 99.7465 34.884 102.078 34.884C103.276 34.884 104.238 34.499 104.965 33.729C105.693 32.9376 106.056 31.7719 106.056 30.2319V21.6977H111.061Z" fill="#A6A9A8"/>
<path d="M123.911 39.2152C122.093 39.2152 120.457 38.8409 119.003 38.0923C117.57 37.3223 116.447 36.2636 115.634 34.9161C114.821 33.5686 114.415 32.0393 114.415 30.3281C114.415 28.617 114.821 27.0877 115.634 25.7402C116.447 24.3927 117.57 23.3447 119.003 22.5961C120.457 21.8261 122.093 21.4411 123.911 21.4411C125.729 21.4411 127.355 21.8261 128.788 22.5961C130.221 23.3447 131.344 24.3927 132.157 25.7402C132.97 27.0877 133.376 28.617 133.376 30.3281C133.376 32.0393 132.97 33.5686 132.157 34.9161C131.344 36.2636 130.221 37.3223 128.788 38.0923C127.355 38.8409 125.729 39.2152 123.911 39.2152ZM123.911 35.1086C125.195 35.1086 126.243 34.6808 127.055 33.8252C127.89 32.9483 128.307 31.7826 128.307 30.3281C128.307 28.8737 127.89 27.7187 127.055 26.8632C126.243 25.9862 125.195 25.5477 123.911 25.5477C122.628 25.5477 121.569 25.9862 120.735 26.8632C119.901 27.7187 119.484 28.8737 119.484 30.3281C119.484 31.7826 119.901 32.9483 120.735 33.8252C121.569 34.6808 122.628 35.1086 123.911 35.1086Z" fill="#A6A9A8"/>
<path d="M147.854 38.1244C147.362 38.488 146.753 38.7661 146.026 38.9586C145.32 39.1297 144.571 39.2152 143.78 39.2152C141.726 39.2152 140.133 38.6912 138.999 37.6432C137.887 36.5951 137.331 35.0551 137.331 33.0232V25.9327H134.668V22.0827H137.331V17.8798H142.336V22.0827H146.635V25.9327H142.336V32.959C142.336 33.6862 142.518 34.253 142.881 34.6594C143.266 35.0444 143.801 35.2369 144.486 35.2369C145.277 35.2369 145.951 35.023 146.507 34.5952L147.854 38.1244Z" fill="#A6A9A8"/>
<path d="M150.664 21.6977H155.669V38.9586H150.664V21.6977ZM153.166 19.2915C152.247 19.2915 151.498 19.0241 150.92 18.4894C150.343 17.9547 150.054 17.2916 150.054 16.5002C150.054 15.7088 150.343 15.0458 150.92 14.5111C151.498 13.9763 152.247 13.709 153.166 13.709C154.086 13.709 154.835 13.9657 155.412 14.479C155.99 14.9923 156.278 15.634 156.278 16.404C156.278 17.2382 155.99 17.9333 155.412 18.4894C154.835 19.0241 154.086 19.2915 153.166 19.2915Z" fill="#A6A9A8"/>
<path d="M177.222 30.3923C177.222 30.4565 177.19 30.9057 177.126 31.7398H164.068C164.303 32.8093 164.859 33.6541 165.736 34.2744C166.613 34.8947 167.704 35.2048 169.008 35.2048C169.907 35.2048 170.698 35.0765 171.383 34.8198C172.088 34.5418 172.741 34.114 173.34 33.5365L176.003 36.424C174.377 38.2848 172.003 39.2152 168.88 39.2152C166.934 39.2152 165.212 38.8409 163.715 38.0923C162.217 37.3223 161.062 36.2636 160.25 34.9161C159.437 33.5686 159.031 32.0393 159.031 30.3281C159.031 28.6384 159.426 27.1198 160.218 25.7723C161.03 24.4034 162.132 23.3447 163.522 22.5961C164.934 21.8261 166.506 21.4411 168.238 21.4411C169.928 21.4411 171.457 21.8047 172.826 22.5319C174.195 23.2591 175.265 24.3072 176.035 25.6761C176.826 27.0236 177.222 28.5957 177.222 30.3923ZM168.271 25.2269C167.137 25.2269 166.185 25.5477 165.415 26.1894C164.645 26.8311 164.175 27.708 164.003 28.8202H172.506C172.334 27.7294 171.864 26.8632 171.094 26.2215C170.324 25.5584 169.383 25.2269 168.271 25.2269Z" fill="#A6A9A8"/>
<path d="M191.045 21.4411C193.184 21.4411 194.906 22.0827 196.211 23.3661C197.537 24.6494 198.2 26.553 198.2 29.0769V38.9586H193.195V29.8469C193.195 28.478 192.895 27.462 192.296 26.799C191.698 26.1145 190.831 25.7723 189.698 25.7723C188.436 25.7723 187.43 26.168 186.682 26.9594C185.933 27.7294 185.559 28.8844 185.559 30.4244V38.9586H180.554V21.6977H185.334V23.719C185.997 22.9918 186.821 22.4357 187.805 22.0507C188.789 21.6443 189.869 21.4411 191.045 21.4411Z" fill="#A6A9A8"/>
<path d="M213.869 38.1244C213.378 38.488 212.768 38.7661 212.041 38.9586C211.335 39.1297 210.586 39.2152 209.795 39.2152C207.742 39.2152 206.148 38.6912 205.014 37.6432C203.902 36.5951 203.346 35.0551 203.346 33.0232V25.9327H200.683V22.0827H203.346V17.8798H208.351V22.0827H212.65V25.9327H208.351V32.959C208.351 33.6862 208.533 34.253 208.897 34.6594C209.282 35.0444 209.816 35.2369 210.501 35.2369C211.292 35.2369 211.966 35.023 212.522 34.5952L213.869 38.1244Z" fill="#A6A9A8"/>
</svg>
