<svg width="52" height="52" viewBox="0 0 52 52" fill="none" xmlns="http://www.w3.org/2000/svg">
<path d="M23.5625 14.625V32.5C23.5598 35.085 22.5317 37.5634 20.7038 39.3913C18.8759 41.2192 16.3975 42.2473 13.8125 42.25C13.3815 42.25 12.9682 42.0788 12.6635 41.774C12.3587 41.4693 12.1875 41.056 12.1875 40.625C12.1875 40.194 12.3587 39.7807 12.6635 39.476C12.9682 39.1712 13.3815 39 13.8125 39C15.5364 39 17.1897 38.3152 18.4087 37.0962C19.6277 35.8772 20.3125 34.2239 20.3125 32.5V30.875H8.125C7.26305 30.875 6.4364 30.5326 5.8269 29.9231C5.21741 29.3136 4.875 28.487 4.875 27.625V14.625C4.875 13.763 5.21741 12.9364 5.8269 12.3269C6.4364 11.7174 7.26305 11.375 8.125 11.375H20.3125C21.1745 11.375 22.0011 11.7174 22.6106 12.3269C23.2201 12.9364 23.5625 13.763 23.5625 14.625ZM43.875 11.375H31.6875C30.8255 11.375 29.9989 11.7174 29.3894 12.3269C28.7799 12.9364 28.4375 13.763 28.4375 14.625V27.625C28.4375 28.487 28.7799 29.3136 29.3894 29.9231C29.9989 30.5326 30.8255 30.875 31.6875 30.875H43.875V32.5C43.875 34.2239 43.1902 35.8772 41.9712 37.0962C40.7522 38.3152 39.0989 39 37.375 39C36.944 39 36.5307 39.1712 36.226 39.476C35.9212 39.7807 35.75 40.194 35.75 40.625C35.75 41.056 35.9212 41.4693 36.226 41.774C36.5307 42.0788 36.944 42.25 37.375 42.25C39.96 42.2473 42.4384 41.2192 44.2663 39.3913C46.0942 37.5634 47.1223 35.085 47.125 32.5V14.625C47.125 13.763 46.7826 12.9364 46.1731 12.3269C45.5636 11.7174 44.737 11.375 43.875 11.375Z" fill="white"/>
</svg>
