<svg width="195" height="55" viewBox="0 0 195 55" fill="none" xmlns="http://www.w3.org/2000/svg">
<rect x="0.5625" y="22" width="11" height="11" fill="white"/>
<rect x="33.5625" y="33" width="11" height="11" transform="rotate(180 33.5625 33)" fill="white"/>
<path d="M11.5625 22L22.5625 11V22L11.5625 33V22Z" fill="#939393"/>
<path d="M22.5625 33L11.5625 44L11.5625 33L22.5625 22L22.5625 33Z" fill="#545454"/>
<path d="M0.5625 22L22.5625 0V11L11.5625 22H0.5625Z" fill="#545454"/>
<path d="M33.5625 33L11.5625 55L11.5625 44L22.5625 33L33.5625 33Z" fill="white"/>
<path d="M57.5195 39.2791C55.787 39.2791 54.108 39.0331 52.4825 38.5412C50.8783 38.0492 49.6057 37.3969 48.6646 36.5841L50.1083 33.3437C51.028 34.0709 52.1509 34.6698 53.477 35.1404C54.8245 35.5895 56.172 35.8141 57.5195 35.8141C59.1879 35.8141 60.4284 35.5467 61.2412 35.012C62.0754 34.4773 62.4925 33.7715 62.4925 32.8945C62.4925 32.2529 62.2572 31.7288 61.7866 31.3224C61.3375 30.8947 60.76 30.5631 60.0541 30.3279C59.3483 30.0926 58.3858 29.8252 57.1666 29.5258C55.4555 29.1194 54.0652 28.713 52.9958 28.3066C51.9477 27.9002 51.0387 27.2692 50.2687 26.4137C49.5201 25.5367 49.1458 24.3604 49.1458 22.8845C49.1458 21.644 49.4773 20.5211 50.1404 19.5158C50.8248 18.4891 51.8408 17.6763 53.1883 17.0774C54.5572 16.4786 56.2255 16.1791 58.1933 16.1791C59.5622 16.1791 60.9097 16.3502 62.2358 16.6924C63.5619 17.0347 64.7062 17.5266 65.6687 18.1683L64.3533 21.4087C63.3694 20.8312 62.3427 20.3927 61.2733 20.0933C60.2039 19.7938 59.1665 19.6441 58.1612 19.6441C56.5143 19.6441 55.2844 19.9222 54.4716 20.4783C53.6802 21.0344 53.2845 21.7723 53.2845 22.692C53.2845 23.3337 53.5091 23.8577 53.9583 24.2641C54.4289 24.6705 55.017 24.9913 55.7229 25.2266C56.4287 25.4619 57.3912 25.7292 58.6104 26.0287C60.2787 26.4137 61.6476 26.8201 62.717 27.2479C63.7865 27.6542 64.6955 28.2852 65.4441 29.1408C66.2141 29.9963 66.5991 31.1513 66.5991 32.6058C66.5991 33.8463 66.2569 34.9692 65.5725 35.9745C64.9094 36.9798 63.8934 37.7819 62.5245 38.3808C61.1557 38.9797 59.4873 39.2791 57.5195 39.2791Z" fill="#A6A9A8"/>
<path d="M70.3499 21.8258H74.3603V38.9583H70.3499V21.8258ZM72.3711 19.0024C71.6439 19.0024 71.0343 18.7779 70.5424 18.3287C70.0504 17.8581 69.8044 17.2806 69.8044 16.5962C69.8044 15.9117 70.0504 15.3449 70.5424 14.8958C71.0343 14.4252 71.6439 14.1899 72.3711 14.1899C73.0983 14.1899 73.7079 14.4145 74.1999 14.8637C74.6918 15.2915 74.9378 15.8369 74.9378 16.4999C74.9378 17.2058 74.6918 17.8047 74.1999 18.2966C73.7293 18.7672 73.1197 19.0024 72.3711 19.0024Z" fill="#A6A9A8"/>
<path d="M84.9177 39.1829C83.5274 39.1829 82.1692 39.0011 80.8431 38.6374C79.517 38.2738 78.4583 37.814 77.6669 37.2579L79.2069 34.2099C79.9769 34.7233 80.8966 35.1404 81.966 35.4612C83.0569 35.7606 84.1263 35.9104 85.1744 35.9104C87.5699 35.9104 88.7677 35.2794 88.7677 34.0174C88.7677 33.4186 88.4576 33.0015 87.8373 32.7662C87.2384 32.5309 86.2652 32.3063 84.9177 32.0924C83.506 31.8786 82.351 31.6326 81.4527 31.3545C80.5758 31.0765 79.8058 30.5952 79.1427 29.9108C78.501 29.2049 78.1802 28.2317 78.1802 26.9912C78.1802 25.3656 78.854 24.0716 80.2014 23.1091C81.5703 22.1252 83.4098 21.6333 85.7198 21.6333C86.8962 21.6333 88.0726 21.7723 89.2489 22.0504C90.4253 22.307 91.3878 22.6599 92.1364 23.1091L90.5964 26.157C89.142 25.3015 87.5058 24.8737 85.6877 24.8737C84.5113 24.8737 83.613 25.0555 82.9927 25.4191C82.3938 25.7613 82.0944 26.2212 82.0944 26.7987C82.0944 27.4404 82.4152 27.9002 83.0569 28.1783C83.7199 28.4349 84.7359 28.6809 86.1048 28.9162C87.4737 29.1301 88.5966 29.3761 89.4735 29.6541C90.3505 29.9322 91.0991 30.4027 91.7194 31.0658C92.361 31.7288 92.6819 32.6699 92.6819 33.8891C92.6819 35.4933 91.9867 36.7766 90.5964 37.7391C89.2062 38.7016 87.3133 39.1829 84.9177 39.1829Z" fill="#A6A9A8"/>
<path d="M111.864 21.8258L103.843 40.3379C103.094 42.1987 102.185 43.5034 101.116 44.252C100.047 45.022 98.7525 45.407 97.2339 45.407C96.3784 45.407 95.5335 45.268 94.6994 44.9899C93.8652 44.7119 93.1807 44.3269 92.646 43.8349L94.2502 40.8833C94.6352 41.2469 95.0843 41.5356 95.5977 41.7495C96.1324 41.9634 96.6671 42.0704 97.2018 42.0704C97.9077 42.0704 98.4852 41.8886 98.9343 41.5249C99.4049 41.1613 99.8327 40.5518 100.218 39.6962L100.506 39.0224L93.031 21.8258H97.2018L102.592 34.4987L108.014 21.8258H111.864Z" fill="#A6A9A8"/>
<path d="M123.867 21.6333C125.535 21.6333 127.022 21.9969 128.327 22.7241C129.653 23.4513 130.69 24.478 131.439 25.8041C132.187 27.1302 132.562 28.6595 132.562 30.392C132.562 32.1245 132.187 33.6645 131.439 35.012C130.69 36.3381 129.653 37.3648 128.327 38.092C127.022 38.8192 125.535 39.1829 123.867 39.1829C121.557 39.1829 119.728 38.4129 118.381 36.8729V45.1824H114.37V21.8258H118.188V24.0716C118.851 23.2588 119.664 22.6492 120.627 22.2429C121.611 21.8365 122.691 21.6333 123.867 21.6333ZM123.418 35.7499C124.894 35.7499 126.102 35.258 127.043 34.2741C128.006 33.2902 128.487 31.9962 128.487 30.392C128.487 28.7879 128.006 27.4938 127.043 26.5099C126.102 25.5261 124.894 25.0341 123.418 25.0341C122.455 25.0341 121.589 25.2587 120.819 25.7079C120.049 26.1356 119.44 26.7559 118.99 27.5687C118.541 28.3815 118.317 29.3226 118.317 30.392C118.317 31.4615 118.541 32.4026 118.99 33.2154C119.44 34.0281 120.049 34.6591 120.819 35.1083C121.589 35.5361 122.455 35.7499 123.418 35.7499Z" fill="#A6A9A8"/>
<path d="M146.086 21.6333C148.247 21.6333 149.979 22.2642 151.284 23.5262C152.589 24.7881 153.241 26.6597 153.241 29.1408V38.9583H149.23V29.6541C149.23 28.1569 148.878 27.034 148.172 26.2854C147.466 25.5154 146.461 25.1304 145.156 25.1304C143.68 25.1304 142.514 25.5795 141.659 26.4779C140.803 27.3548 140.375 28.6274 140.375 30.2958V38.9583H136.365V15.1524H140.375V23.8149C141.039 23.1091 141.851 22.5744 142.814 22.2108C143.798 21.8258 144.889 21.6333 146.086 21.6333Z" fill="#A6A9A8"/>
<path d="M174.915 21.8258V38.9583H171.097V36.7766C170.456 37.5466 169.654 38.1455 168.691 38.5733C167.729 38.9797 166.691 39.1829 165.579 39.1829C163.291 39.1829 161.483 38.5519 160.157 37.2899C158.852 36.0066 158.2 34.1137 158.2 31.6112V21.8258H162.21V31.0658C162.21 32.6058 162.553 33.7608 163.237 34.5308C163.943 35.2794 164.937 35.6537 166.221 35.6537C167.654 35.6537 168.787 35.2152 169.622 34.3383C170.477 33.4399 170.905 32.1566 170.905 30.4883V21.8258H174.915Z" fill="#A6A9A8"/>
<path d="M185.46 39.1829C184.07 39.1829 182.712 39.0011 181.385 38.6374C180.059 38.2738 179.001 37.814 178.209 37.2579L179.749 34.2099C180.519 34.7233 181.439 35.1404 182.508 35.4612C183.599 35.7606 184.669 35.9104 185.717 35.9104C188.112 35.9104 189.31 35.2794 189.31 34.0174C189.31 33.4186 189 33.0015 188.38 32.7662C187.781 32.5309 186.808 32.3063 185.46 32.0924C184.048 31.8786 182.893 31.6326 181.995 31.3545C181.118 31.0765 180.348 30.5952 179.685 29.9108C179.043 29.2049 178.723 28.2317 178.723 26.9912C178.723 25.3656 179.396 24.0716 180.744 23.1091C182.113 22.1252 183.952 21.6333 186.262 21.6333C187.439 21.6333 188.615 21.7723 189.791 22.0504C190.968 22.307 191.93 22.6599 192.679 23.1091L191.139 26.157C189.684 25.3015 188.048 24.8737 186.23 24.8737C185.054 24.8737 184.155 25.0555 183.535 25.4191C182.936 25.7613 182.637 26.2212 182.637 26.7987C182.637 27.4404 182.958 27.9002 183.599 28.1783C184.262 28.4349 185.278 28.6809 186.647 28.9162C188.016 29.1301 189.139 29.3761 190.016 29.6541C190.893 29.9322 191.641 30.4027 192.262 31.0658C192.903 31.7288 193.224 32.6699 193.224 33.8891C193.224 35.4933 192.529 36.7766 191.139 37.7391C189.749 38.7016 187.856 39.1829 185.46 39.1829Z" fill="#A6A9A8"/>
</svg>
