<svg width="22" height="24" viewBox="0 0 22 24" fill="none" xmlns="http://www.w3.org/2000/svg">
<path d="M21.5 9.84375H21.4531C19.2969 9.84375 17.3281 9.1875 15.7344 8.01562V16.4062C15.7344 20.625 12.3125 24 8.09375 24C3.875 24 0.5 20.625 0.5 16.4062C0.5 12.1875 3.875 8.76562 8.09375 8.76562C8.46875 8.76562 8.79688 8.8125 9.17188 8.85938V13.0781C8.79688 12.9375 8.46875 12.8906 8.09375 12.8906C6.17188 12.8906 4.57812 14.4844 4.57812 16.4062C4.57812 18.3281 6.17188 19.9219 8.09375 19.9219C10.0156 19.9219 11.6094 18.3281 11.6094 16.4062V0H15.7344C15.7344 0.046875 15.7344 0.046875 15.7344 0.09375C15.7344 0.421875 15.7344 0.75 15.8281 1.07812C16.1094 2.625 17.0469 3.98438 18.3594 4.82812C19.25 5.4375 20.3281 5.76562 21.4531 5.76562C21.4531 5.76562 21.4531 5.76562 21.5 5.76562V9.84375Z" fill="white"/>
</svg>
