<svg width="26" height="18" viewBox="0 0 26 18" fill="none" xmlns="http://www.w3.org/2000/svg">
<path d="M25.2344 2.85938C25.7969 4.82812 25.7969 9.04688 25.7969 9.04688C25.7969 9.04688 25.7969 13.2188 25.2344 15.2344C24.9531 16.3594 24.0625 17.2031 22.9844 17.4844C20.9688 18 13 18 13 18C13 18 4.98438 18 2.96875 17.4844C1.89062 17.2031 1 16.3594 0.71875 15.2344C0.15625 13.2188 0.15625 9.04688 0.15625 9.04688C0.15625 9.04688 0.15625 4.82812 0.71875 2.85938C1 1.73438 1.89062 0.84375 2.96875 0.5625C4.98438 0 13 0 13 0C13 0 20.9688 0 22.9844 0.5625C24.0625 0.84375 24.9531 1.73438 25.2344 2.85938ZM10.375 12.8438L17.0312 9.04688L10.375 5.25V12.8438Z" fill="white"/>
</svg>
